<?xml version="1.0" encoding="UTF-8" standalone="no"?>
<!-- Generator: Adobe Illustrator 25.2.0, SVG Export Plug-In . SVG Version: 6.00 Build 0)  -->

<svg
   version="1.1"
   id="Layer_1"
   x="0px"
   y="0px"
   viewBox="0 0 24 24"
   xml:space="preserve"
   sodipodi:docname="Grey_Linkedin.svg"
   width="24"
   height="24"
   inkscape:version="1.2.2 (1:1.2.2+202212051552+b0a8486541)"
   xmlns:inkscape="http://www.inkscape.org/namespaces/inkscape"
   xmlns:sodipodi="http://sodipodi.sourceforge.net/DTD/sodipodi-0.dtd"
   xmlns="http://www.w3.org/2000/svg"
   xmlns:svg="http://www.w3.org/2000/svg"><defs
   id="defs305" /><sodipodi:namedview
   id="namedview303"
   pagecolor="#ffffff"
   bordercolor="#666666"
   borderopacity="1.0"
   inkscape:showpageshadow="2"
   inkscape:pageopacity="0.0"
   inkscape:pagecheckerboard="0"
   inkscape:deskcolor="#d1d1d1"
   showgrid="false"
   inkscape:zoom="1.027"
   inkscape:cx="500.48685"
   inkscape:cy="501.94742"
   inkscape:window-width="2806"
   inkscape:window-height="1556"
   inkscape:window-x="0"
   inkscape:window-y="0"
   inkscape:window-maximized="1"
   inkscape:current-layer="Layer_1" />


<path
   style="fill:#898583;stroke-width:0.0480007"
   d="M 22.224574,0 H 1.7702416 C 0.79365422,0 0,0.77472155 0,1.7304515 V 22.268205 C 0,23.223934 0.79365422,24 1.7702416,24 H 22.224574 C 23.20313,24 24,23.223934 24,22.268205 V 1.7304515 C 24,0.77472155 23.20313,0 22.224574,0 Z"
   id="path296" />
<path
   style="fill:#ffffff;stroke-width:0.0480007"
   d="M 3.5560836,8.997426 H 7.1193193 V 20.450585 H 3.5560836 Z M 5.3387095,3.3040386 c 1.1386879,0 2.0631938,0.9248179 2.0631938,2.0641481 0,1.1396663 -0.9244579,2.0644362 -2.0631938,2.0644362 -1.143248,0 -2.0651618,-0.9247699 -2.0651618,-2.0644362 0,-1.1393302 0.9218658,-2.0641481 2.0651618,-2.0641481"
   id="path298" />
<path
   style="fill:#ffffff;stroke-width:0.0480007"
   d="m 9.3524379,8.997426 h 3.4122231 v 1.565715 h 0.04882 c 0.474637,-0.9003857 1.636126,-1.8499236 3.367966,-1.8499236 3.604229,0 4.270344,2.3714926 4.270344,5.4560746 v 6.281293 h -3.55935 v -5.569691 c 0,-1.328115 -0.0228,-3.036822 -1.849636,-3.036822 -1.852276,0 -2.13486,1.447587 -2.13486,2.941734 v 5.664731 H 9.3525339 V 8.997426 Z"
   id="path300" />
</svg>
