<svg xmlns="http://www.w3.org/2000/svg" xmlns:xlink="http://www.w3.org/1999/xlink" width="1366" zoomAndPan="magnify" viewBox="0 0 1024.5 863.999991" height="1152" preserveAspectRatio="xMidYMid meet" version="1.0"><defs><clipPath id="05f1e277ca"><path d="M 0 0.210938 L 1024 0.210938 L 1024 863.789062 L 0 863.789062 Z M 0 0.210938 " clip-rule="nonzero"/></clipPath><clipPath id="f39c17b6cc"><path d="M 268 296 L 490 296 L 490 665 L 268 665 Z M 268 296 " clip-rule="nonzero"/></clipPath><clipPath id="6da73dc3af"><path d="M 122.78125 633.699219 L 310.179688 207.316406 L 765.402344 407.386719 L 578.003906 833.773438 Z M 122.78125 633.699219 " clip-rule="nonzero"/></clipPath><clipPath id="f41b835bb7"><path d="M 122.78125 633.699219 L 310.179688 207.316406 L 765.402344 407.386719 L 578.003906 833.773438 Z M 122.78125 633.699219 " clip-rule="nonzero"/></clipPath><clipPath id="a177e97633"><path d="M 122.78125 633.699219 L 310.179688 207.316406 L 765.402344 407.386719 L 578.003906 833.773438 Z M 122.78125 633.699219 " clip-rule="nonzero"/></clipPath><clipPath id="294303d158"><path d="M 388 380 L 576 380 L 576 671 L 388 671 Z M 388 380 " clip-rule="nonzero"/></clipPath><clipPath id="9500328373"><path d="M 122.78125 633.699219 L 310.179688 207.316406 L 765.402344 407.386719 L 578.003906 833.773438 Z M 122.78125 633.699219 " clip-rule="nonzero"/></clipPath><clipPath id="5e5df62c87"><path d="M 122.78125 633.699219 L 310.179688 207.316406 L 765.402344 407.386719 L 578.003906 833.773438 Z M 122.78125 633.699219 " clip-rule="nonzero"/></clipPath><clipPath id="6702f1f67d"><path d="M 122.78125 633.699219 L 310.179688 207.316406 L 765.402344 407.386719 L 578.003906 833.773438 Z M 122.78125 633.699219 " clip-rule="nonzero"/></clipPath><clipPath id="9d0ec5bb22"><path d="M 508 465 L 698 465 L 698 680 L 508 680 Z M 508 465 " clip-rule="nonzero"/></clipPath><clipPath id="3ad19841a1"><path d="M 122.78125 633.699219 L 310.179688 207.316406 L 765.402344 407.386719 L 578.003906 833.773438 Z M 122.78125 633.699219 " clip-rule="nonzero"/></clipPath><clipPath id="0655b44f1d"><path d="M 122.78125 633.699219 L 310.179688 207.316406 L 765.402344 407.386719 L 578.003906 833.773438 Z M 122.78125 633.699219 " clip-rule="nonzero"/></clipPath><clipPath id="25d8ec6417"><path d="M 122.78125 633.699219 L 310.179688 207.316406 L 765.402344 407.386719 L 578.003906 833.773438 Z M 122.78125 633.699219 " clip-rule="nonzero"/></clipPath><clipPath id="20eda5e258"><path d="M 122 207 L 405 207 L 405 660 L 122 660 Z M 122 207 " clip-rule="nonzero"/></clipPath><clipPath id="d178e42f2b"><path d="M 122.78125 633.699219 L 310.179688 207.316406 L 765.402344 407.386719 L 578.003906 833.773438 Z M 122.78125 633.699219 " clip-rule="nonzero"/></clipPath><clipPath id="d246375643"><path d="M 122.78125 633.699219 L 310.179688 207.316406 L 765.402344 407.386719 L 578.003906 833.773438 Z M 122.78125 633.699219 " clip-rule="nonzero"/></clipPath><clipPath id="c0fbf43b94"><path d="M 122.78125 633.699219 L 310.179688 207.316406 L 765.402344 407.386719 L 578.003906 833.773438 Z M 122.78125 633.699219 " clip-rule="nonzero"/></clipPath><clipPath id="b888ab3072"><path d="M 565 564 L 661 564 L 661 626 L 565 626 Z M 565 564 " clip-rule="nonzero"/></clipPath><clipPath id="080b8a0be4"><path d="M 122.78125 633.699219 L 310.179688 207.316406 L 765.402344 407.386719 L 578.003906 833.773438 Z M 122.78125 633.699219 " clip-rule="nonzero"/></clipPath><clipPath id="1c938105b5"><path d="M 122.78125 633.699219 L 310.179688 207.316406 L 765.402344 407.386719 L 578.003906 833.773438 Z M 122.78125 633.699219 " clip-rule="nonzero"/></clipPath><clipPath id="c181a97eac"><path d="M 122.78125 633.699219 L 310.179688 207.316406 L 765.402344 407.386719 L 578.003906 833.773438 Z M 122.78125 633.699219 " clip-rule="nonzero"/></clipPath><clipPath id="02bc0eeac2"><path d="M 373 187 L 445 187 L 445 255 L 373 255 Z M 373 187 " clip-rule="nonzero"/></clipPath><clipPath id="f02ee85342"><path d="M 386.144531 119.535156 L 482.511719 166.609375 L 434.453125 265 L 338.085938 217.925781 Z M 386.144531 119.535156 " clip-rule="nonzero"/></clipPath><clipPath id="0da04d3d78"><path d="M 482.34375 166.527344 L 385.976562 119.453125 L 337.917969 217.84375 L 434.285156 264.917969 Z M 482.34375 166.527344 " clip-rule="nonzero"/></clipPath><clipPath id="a2bc867582"><path d="M 482.34375 166.527344 L 385.976562 119.453125 L 337.917969 217.84375 L 434.285156 264.917969 Z M 482.34375 166.527344 " clip-rule="nonzero"/></clipPath><clipPath id="58bf8021a5"><path d="M 359 189 L 377 189 L 377 198 L 359 198 Z M 359 189 " clip-rule="nonzero"/></clipPath><clipPath id="c37a99f7cc"><path d="M 386.144531 119.535156 L 482.511719 166.609375 L 434.453125 265 L 338.085938 217.925781 Z M 386.144531 119.535156 " clip-rule="nonzero"/></clipPath><clipPath id="68eae54114"><path d="M 482.34375 166.527344 L 385.976562 119.453125 L 337.917969 217.84375 L 434.285156 264.917969 Z M 482.34375 166.527344 " clip-rule="nonzero"/></clipPath><clipPath id="636d08e651"><path d="M 482.34375 166.527344 L 385.976562 119.453125 L 337.917969 217.84375 L 434.285156 264.917969 Z M 482.34375 166.527344 " clip-rule="nonzero"/></clipPath><clipPath id="0feec39a10"><path d="M 368 181 L 387 181 L 387 200 L 368 200 Z M 368 181 " clip-rule="nonzero"/></clipPath><clipPath id="b29121099d"><path d="M 386.144531 119.535156 L 482.511719 166.609375 L 434.453125 265 L 338.085938 217.925781 Z M 386.144531 119.535156 " clip-rule="nonzero"/></clipPath><clipPath id="b26e9f5f04"><path d="M 482.34375 166.527344 L 385.976562 119.453125 L 337.917969 217.84375 L 434.285156 264.917969 Z M 482.34375 166.527344 " clip-rule="nonzero"/></clipPath><clipPath id="95214e4ab5"><path d="M 482.34375 166.527344 L 385.976562 119.453125 L 337.917969 217.84375 L 434.285156 264.917969 Z M 482.34375 166.527344 " clip-rule="nonzero"/></clipPath><clipPath id="da80316fa2"><path d="M 394 174 L 447 174 L 447 234 L 394 234 Z M 394 174 " clip-rule="nonzero"/></clipPath><clipPath id="53a513bdfe"><path d="M 386.144531 119.535156 L 482.511719 166.609375 L 434.453125 265 L 338.085938 217.925781 Z M 386.144531 119.535156 " clip-rule="nonzero"/></clipPath><clipPath id="a148c74cc6"><path d="M 482.34375 166.527344 L 385.976562 119.453125 L 337.917969 217.84375 L 434.285156 264.917969 Z M 482.34375 166.527344 " clip-rule="nonzero"/></clipPath><clipPath id="64d99b8ef2"><path d="M 482.34375 166.527344 L 385.976562 119.453125 L 337.917969 217.84375 L 434.285156 264.917969 Z M 482.34375 166.527344 " clip-rule="nonzero"/></clipPath><clipPath id="0f57004aac"><path d="M 415 234 L 424 234 L 424 242 L 415 242 Z M 415 234 " clip-rule="nonzero"/></clipPath><clipPath id="71e0324bab"><path d="M 386.144531 119.535156 L 482.511719 166.609375 L 434.453125 265 L 338.085938 217.925781 Z M 386.144531 119.535156 " clip-rule="nonzero"/></clipPath><clipPath id="23665f7a33"><path d="M 482.34375 166.527344 L 385.976562 119.453125 L 337.917969 217.84375 L 434.285156 264.917969 Z M 482.34375 166.527344 " clip-rule="nonzero"/></clipPath><clipPath id="ba001f470a"><path d="M 482.34375 166.527344 L 385.976562 119.453125 L 337.917969 217.84375 L 434.285156 264.917969 Z M 482.34375 166.527344 " clip-rule="nonzero"/></clipPath><clipPath id="69793f2e24"><path d="M 416 228 L 426 228 L 426 241 L 416 241 Z M 416 228 " clip-rule="nonzero"/></clipPath><clipPath id="3dbe6c9416"><path d="M 386.144531 119.535156 L 482.511719 166.609375 L 434.453125 265 L 338.085938 217.925781 Z M 386.144531 119.535156 " clip-rule="nonzero"/></clipPath><clipPath id="1e3fde96bc"><path d="M 482.34375 166.527344 L 385.976562 119.453125 L 337.917969 217.84375 L 434.285156 264.917969 Z M 482.34375 166.527344 " clip-rule="nonzero"/></clipPath><clipPath id="dbc419d560"><path d="M 482.34375 166.527344 L 385.976562 119.453125 L 337.917969 217.84375 L 434.285156 264.917969 Z M 482.34375 166.527344 " clip-rule="nonzero"/></clipPath><clipPath id="f1844994e6"><path d="M 436 169 L 442 169 L 442 174 L 436 174 Z M 436 169 " clip-rule="nonzero"/></clipPath><clipPath id="9f3579e04e"><path d="M 386.144531 119.535156 L 482.511719 166.609375 L 434.453125 265 L 338.085938 217.925781 Z M 386.144531 119.535156 " clip-rule="nonzero"/></clipPath><clipPath id="a7dd50908b"><path d="M 482.34375 166.527344 L 385.976562 119.453125 L 337.917969 217.84375 L 434.285156 264.917969 Z M 482.34375 166.527344 " clip-rule="nonzero"/></clipPath><clipPath id="2e5668fa21"><path d="M 482.34375 166.527344 L 385.976562 119.453125 L 337.917969 217.84375 L 434.285156 264.917969 Z M 482.34375 166.527344 " clip-rule="nonzero"/></clipPath><clipPath id="3b9b47817c"><path d="M 405 154 L 438 154 L 438 186 L 405 186 Z M 405 154 " clip-rule="nonzero"/></clipPath><clipPath id="7908db7698"><path d="M 386.144531 119.535156 L 482.511719 166.609375 L 434.453125 265 L 338.085938 217.925781 Z M 386.144531 119.535156 " clip-rule="nonzero"/></clipPath><clipPath id="8def9236ec"><path d="M 482.34375 166.527344 L 385.976562 119.453125 L 337.917969 217.84375 L 434.285156 264.917969 Z M 482.34375 166.527344 " clip-rule="nonzero"/></clipPath><clipPath id="dfb60cfa5a"><path d="M 482.34375 166.527344 L 385.976562 119.453125 L 337.917969 217.84375 L 434.285156 264.917969 Z M 482.34375 166.527344 " clip-rule="nonzero"/></clipPath><clipPath id="df3073f38b"><path d="M 406 135 L 418 135 L 418 148 L 406 148 Z M 406 135 " clip-rule="nonzero"/></clipPath><clipPath id="ba004ab698"><path d="M 386.144531 119.535156 L 482.511719 166.609375 L 434.453125 265 L 338.085938 217.925781 Z M 386.144531 119.535156 " clip-rule="nonzero"/></clipPath><clipPath id="25777676bf"><path d="M 482.34375 166.527344 L 385.976562 119.453125 L 337.917969 217.84375 L 434.285156 264.917969 Z M 482.34375 166.527344 " clip-rule="nonzero"/></clipPath><clipPath id="6163467883"><path d="M 482.34375 166.527344 L 385.976562 119.453125 L 337.917969 217.84375 L 434.285156 264.917969 Z M 482.34375 166.527344 " clip-rule="nonzero"/></clipPath><clipPath id="65f0a9da4f"><path d="M 412 133 L 416 133 L 416 137 L 412 137 Z M 412 133 " clip-rule="nonzero"/></clipPath><clipPath id="fe36b0c4c1"><path d="M 386.144531 119.535156 L 482.511719 166.609375 L 434.453125 265 L 338.085938 217.925781 Z M 386.144531 119.535156 " clip-rule="nonzero"/></clipPath><clipPath id="4e7f228d00"><path d="M 482.34375 166.527344 L 385.976562 119.453125 L 337.917969 217.84375 L 434.285156 264.917969 Z M 482.34375 166.527344 " clip-rule="nonzero"/></clipPath><clipPath id="552f6dca9f"><path d="M 482.34375 166.527344 L 385.976562 119.453125 L 337.917969 217.84375 L 434.285156 264.917969 Z M 482.34375 166.527344 " clip-rule="nonzero"/></clipPath><clipPath id="fdaf0b4a15"><path d="M 384 137 L 418 137 L 418 157 L 384 157 Z M 384 137 " clip-rule="nonzero"/></clipPath><clipPath id="b39d190478"><path d="M 386.144531 119.535156 L 482.511719 166.609375 L 434.453125 265 L 338.085938 217.925781 Z M 386.144531 119.535156 " clip-rule="nonzero"/></clipPath><clipPath id="ec6c4c4224"><path d="M 482.34375 166.527344 L 385.976562 119.453125 L 337.917969 217.84375 L 434.285156 264.917969 Z M 482.34375 166.527344 " clip-rule="nonzero"/></clipPath><clipPath id="db486df18d"><path d="M 482.34375 166.527344 L 385.976562 119.453125 L 337.917969 217.84375 L 434.285156 264.917969 Z M 482.34375 166.527344 " clip-rule="nonzero"/></clipPath><clipPath id="7b2aee2e31"><path d="M 373 180 L 441 180 L 441 231 L 373 231 Z M 373 180 " clip-rule="nonzero"/></clipPath><clipPath id="1adc2e876a"><path d="M 386.144531 119.535156 L 482.511719 166.609375 L 434.453125 265 L 338.085938 217.925781 Z M 386.144531 119.535156 " clip-rule="nonzero"/></clipPath><clipPath id="5e48e14f26"><path d="M 482.34375 166.527344 L 385.976562 119.453125 L 337.917969 217.84375 L 434.285156 264.917969 Z M 482.34375 166.527344 " clip-rule="nonzero"/></clipPath><clipPath id="9a90176bc6"><path d="M 482.34375 166.527344 L 385.976562 119.453125 L 337.917969 217.84375 L 434.285156 264.917969 Z M 482.34375 166.527344 " clip-rule="nonzero"/></clipPath><clipPath id="2c45e80af6"><path d="M 380 172 L 397 172 L 397 194 L 380 194 Z M 380 172 " clip-rule="nonzero"/></clipPath><clipPath id="f4cb01c174"><path d="M 386.144531 119.535156 L 482.511719 166.609375 L 434.453125 265 L 338.085938 217.925781 Z M 386.144531 119.535156 " clip-rule="nonzero"/></clipPath><clipPath id="4d16085748"><path d="M 482.34375 166.527344 L 385.976562 119.453125 L 337.917969 217.84375 L 434.285156 264.917969 Z M 482.34375 166.527344 " clip-rule="nonzero"/></clipPath><clipPath id="03269d818e"><path d="M 482.34375 166.527344 L 385.976562 119.453125 L 337.917969 217.84375 L 434.285156 264.917969 Z M 482.34375 166.527344 " clip-rule="nonzero"/></clipPath><clipPath id="d30678c1de"><path d="M 360 159 L 425 159 L 425 255 L 360 255 Z M 360 159 " clip-rule="nonzero"/></clipPath><clipPath id="8b6394067c"><path d="M 386.144531 119.535156 L 482.511719 166.609375 L 434.453125 265 L 338.085938 217.925781 Z M 386.144531 119.535156 " clip-rule="nonzero"/></clipPath><clipPath id="d3ba861f97"><path d="M 482.34375 166.527344 L 385.976562 119.453125 L 337.917969 217.84375 L 434.285156 264.917969 Z M 482.34375 166.527344 " clip-rule="nonzero"/></clipPath><clipPath id="00f8759bc5"><path d="M 482.34375 166.527344 L 385.976562 119.453125 L 337.917969 217.84375 L 434.285156 264.917969 Z M 482.34375 166.527344 " clip-rule="nonzero"/></clipPath><clipPath id="163ef29d87"><path d="M 451.167969 192.445312 L 373.886719 154.695312 L 341.992188 219.988281 L 419.273438 257.738281 Z M 451.167969 192.445312 " clip-rule="nonzero"/></clipPath><clipPath id="b323ddc7f9"><path d="M 451.167969 192.445312 L 373.886719 154.695312 L 342.058594 219.851562 L 419.339844 257.601562 Z M 451.167969 192.445312 " clip-rule="nonzero"/></clipPath><clipPath id="cec405d828"><path d="M 392 175 L 431 175 L 431 233 L 392 233 Z M 392 175 " clip-rule="nonzero"/></clipPath><clipPath id="395dfd06d7"><path d="M 386.144531 119.535156 L 482.511719 166.609375 L 434.453125 265 L 338.085938 217.925781 Z M 386.144531 119.535156 " clip-rule="nonzero"/></clipPath><clipPath id="1a57411615"><path d="M 482.34375 166.527344 L 385.976562 119.453125 L 337.917969 217.84375 L 434.285156 264.917969 Z M 482.34375 166.527344 " clip-rule="nonzero"/></clipPath><clipPath id="a978102b5f"><path d="M 482.34375 166.527344 L 385.976562 119.453125 L 337.917969 217.84375 L 434.285156 264.917969 Z M 482.34375 166.527344 " clip-rule="nonzero"/></clipPath><clipPath id="83d2eb9aea"><path d="M 382 145 L 416 145 L 416 179 L 382 179 Z M 382 145 " clip-rule="nonzero"/></clipPath><clipPath id="3b5fd9378c"><path d="M 386.144531 119.535156 L 482.511719 166.609375 L 434.453125 265 L 338.085938 217.925781 Z M 386.144531 119.535156 " clip-rule="nonzero"/></clipPath><clipPath id="517d36de84"><path d="M 482.34375 166.527344 L 385.976562 119.453125 L 337.917969 217.84375 L 434.285156 264.917969 Z M 482.34375 166.527344 " clip-rule="nonzero"/></clipPath><clipPath id="b2b582b5e9"><path d="M 482.34375 166.527344 L 385.976562 119.453125 L 337.917969 217.84375 L 434.285156 264.917969 Z M 482.34375 166.527344 " clip-rule="nonzero"/></clipPath><clipPath id="1986e08195"><path d="M 407 146 L 412 146 L 412 152 L 407 152 Z M 407 146 " clip-rule="nonzero"/></clipPath><clipPath id="2c6c15da34"><path d="M 386.144531 119.535156 L 482.511719 166.609375 L 434.453125 265 L 338.085938 217.925781 Z M 386.144531 119.535156 " clip-rule="nonzero"/></clipPath><clipPath id="81c9df9c74"><path d="M 482.34375 166.527344 L 385.976562 119.453125 L 337.917969 217.84375 L 434.285156 264.917969 Z M 482.34375 166.527344 " clip-rule="nonzero"/></clipPath><clipPath id="36b233752e"><path d="M 482.34375 166.527344 L 385.976562 119.453125 L 337.917969 217.84375 L 434.285156 264.917969 Z M 482.34375 166.527344 " clip-rule="nonzero"/></clipPath><clipPath id="fc68af10a4"><path d="M 408 147 L 411 147 L 411 151 L 408 151 Z M 408 147 " clip-rule="nonzero"/></clipPath><clipPath id="0b2fab7443"><path d="M 386.144531 119.535156 L 482.511719 166.609375 L 434.453125 265 L 338.085938 217.925781 Z M 386.144531 119.535156 " clip-rule="nonzero"/></clipPath><clipPath id="a2751384ed"><path d="M 482.34375 166.527344 L 385.976562 119.453125 L 337.917969 217.84375 L 434.285156 264.917969 Z M 482.34375 166.527344 " clip-rule="nonzero"/></clipPath><clipPath id="cf8e8cb9e8"><path d="M 482.34375 166.527344 L 385.976562 119.453125 L 337.917969 217.84375 L 434.285156 264.917969 Z M 482.34375 166.527344 " clip-rule="nonzero"/></clipPath><clipPath id="11c6c53da5"><path d="M 407 141 L 415 141 L 415 150 L 407 150 Z M 407 141 " clip-rule="nonzero"/></clipPath><clipPath id="c86b49e4d6"><path d="M 386.144531 119.535156 L 482.511719 166.609375 L 434.453125 265 L 338.085938 217.925781 Z M 386.144531 119.535156 " clip-rule="nonzero"/></clipPath><clipPath id="4aeac46fdf"><path d="M 482.34375 166.527344 L 385.976562 119.453125 L 337.917969 217.84375 L 434.285156 264.917969 Z M 482.34375 166.527344 " clip-rule="nonzero"/></clipPath><clipPath id="7c4b7511bb"><path d="M 482.34375 166.527344 L 385.976562 119.453125 L 337.917969 217.84375 L 434.285156 264.917969 Z M 482.34375 166.527344 " clip-rule="nonzero"/></clipPath><clipPath id="c6fb106bfc"><path d="M 396 233 L 405 233 L 405 242 L 396 242 Z M 396 233 " clip-rule="nonzero"/></clipPath><clipPath id="4cc328ad42"><path d="M 386.144531 119.535156 L 482.511719 166.609375 L 434.453125 265 L 338.085938 217.925781 Z M 386.144531 119.535156 " clip-rule="nonzero"/></clipPath><clipPath id="075f40633b"><path d="M 482.34375 166.527344 L 385.976562 119.453125 L 337.917969 217.84375 L 434.285156 264.917969 Z M 482.34375 166.527344 " clip-rule="nonzero"/></clipPath><clipPath id="bc4fd321e1"><path d="M 482.34375 166.527344 L 385.976562 119.453125 L 337.917969 217.84375 L 434.285156 264.917969 Z M 482.34375 166.527344 " clip-rule="nonzero"/></clipPath><clipPath id="1dbc112a44"><path d="M 397 228 L 407 228 L 407 241 L 397 241 Z M 397 228 " clip-rule="nonzero"/></clipPath><clipPath id="489721168c"><path d="M 386.144531 119.535156 L 482.511719 166.609375 L 434.453125 265 L 338.085938 217.925781 Z M 386.144531 119.535156 " clip-rule="nonzero"/></clipPath><clipPath id="121572e29c"><path d="M 482.34375 166.527344 L 385.976562 119.453125 L 337.917969 217.84375 L 434.285156 264.917969 Z M 482.34375 166.527344 " clip-rule="nonzero"/></clipPath><clipPath id="aa5d21e219"><path d="M 482.34375 166.527344 L 385.976562 119.453125 L 337.917969 217.84375 L 434.285156 264.917969 Z M 482.34375 166.527344 " clip-rule="nonzero"/></clipPath><clipPath id="3147e76040"><path d="M 384 137 L 414 137 L 414 155 L 384 155 Z M 384 137 " clip-rule="nonzero"/></clipPath><clipPath id="82ac8d5ea0"><path d="M 386.144531 119.535156 L 482.511719 166.609375 L 434.453125 265 L 338.085938 217.925781 Z M 386.144531 119.535156 " clip-rule="nonzero"/></clipPath><clipPath id="dac626fead"><path d="M 482.34375 166.527344 L 385.976562 119.453125 L 337.917969 217.84375 L 434.285156 264.917969 Z M 482.34375 166.527344 " clip-rule="nonzero"/></clipPath><clipPath id="bf021d2828"><path d="M 482.34375 166.527344 L 385.976562 119.453125 L 337.917969 217.84375 L 434.285156 264.917969 Z M 482.34375 166.527344 " clip-rule="nonzero"/></clipPath><clipPath id="bd539c0091"><path d="M 413 171 L 443 171 L 443 237 L 413 237 Z M 413 171 " clip-rule="nonzero"/></clipPath><clipPath id="0868e2750e"><path d="M 386.144531 119.535156 L 482.511719 166.609375 L 434.453125 265 L 338.085938 217.925781 Z M 386.144531 119.535156 " clip-rule="nonzero"/></clipPath><clipPath id="39a619dec3"><path d="M 482.34375 166.527344 L 385.976562 119.453125 L 337.917969 217.84375 L 434.285156 264.917969 Z M 482.34375 166.527344 " clip-rule="nonzero"/></clipPath><clipPath id="04126cdf63"><path d="M 482.34375 166.527344 L 385.976562 119.453125 L 337.917969 217.84375 L 434.285156 264.917969 Z M 482.34375 166.527344 " clip-rule="nonzero"/></clipPath><clipPath id="de08eab477"><path d="M 410 171 L 416 171 L 416 176 L 410 176 Z M 410 171 " clip-rule="nonzero"/></clipPath><clipPath id="4ad3c03b58"><path d="M 386.144531 119.535156 L 482.511719 166.609375 L 434.453125 265 L 338.085938 217.925781 Z M 386.144531 119.535156 " clip-rule="nonzero"/></clipPath><clipPath id="4d73546460"><path d="M 482.34375 166.527344 L 385.976562 119.453125 L 337.917969 217.84375 L 434.285156 264.917969 Z M 482.34375 166.527344 " clip-rule="nonzero"/></clipPath><clipPath id="a11112aa1b"><path d="M 482.34375 166.527344 L 385.976562 119.453125 L 337.917969 217.84375 L 434.285156 264.917969 Z M 482.34375 166.527344 " clip-rule="nonzero"/></clipPath><clipPath id="e02308f57a"><path d="M 379 147 L 412 147 L 412 180 L 379 180 Z M 379 147 " clip-rule="nonzero"/></clipPath><clipPath id="59e627d8ba"><path d="M 386.144531 119.535156 L 482.511719 166.609375 L 434.453125 265 L 338.085938 217.925781 Z M 386.144531 119.535156 " clip-rule="nonzero"/></clipPath><clipPath id="8b5e47892e"><path d="M 482.34375 166.527344 L 385.976562 119.453125 L 337.917969 217.84375 L 434.285156 264.917969 Z M 482.34375 166.527344 " clip-rule="nonzero"/></clipPath><clipPath id="c7dec91504"><path d="M 482.34375 166.527344 L 385.976562 119.453125 L 337.917969 217.84375 L 434.285156 264.917969 Z M 482.34375 166.527344 " clip-rule="nonzero"/></clipPath><clipPath id="dae7a7cf08"><path d="M 380 126 L 415 126 L 415 154 L 380 154 Z M 380 126 " clip-rule="nonzero"/></clipPath><clipPath id="faadb31f03"><path d="M 386.144531 119.535156 L 482.511719 166.609375 L 434.453125 265 L 338.085938 217.925781 Z M 386.144531 119.535156 " clip-rule="nonzero"/></clipPath><clipPath id="f6cc9f8f53"><path d="M 482.34375 166.527344 L 385.976562 119.453125 L 337.917969 217.84375 L 434.285156 264.917969 Z M 482.34375 166.527344 " clip-rule="nonzero"/></clipPath><clipPath id="2218af02b4"><path d="M 482.34375 166.527344 L 385.976562 119.453125 L 337.917969 217.84375 L 434.285156 264.917969 Z M 482.34375 166.527344 " clip-rule="nonzero"/></clipPath><clipPath id="15f5cda7e2"><path d="M 418.390625 143.394531 L 382.710938 125.964844 L 376.953125 137.75 L 412.632812 155.179688 Z M 418.390625 143.394531 " clip-rule="nonzero"/></clipPath><clipPath id="a561e2fd71"><path d="M 418.390625 143.394531 L 382.808594 126.011719 L 377.050781 137.796875 L 412.632812 155.179688 Z M 418.390625 143.394531 " clip-rule="nonzero"/></clipPath></defs><g clip-path="url(#05f1e277ca)"><path fill="#ffffff" d="M 0 0.210938 L 1024.5 0.210938 L 1024.5 864.210938 L 0 864.210938 Z M 0 0.210938 " fill-opacity="1" fill-rule="nonzero"/><path fill="#f2e7de" d="M 0 0.210938 L 1024.5 0.210938 L 1024.5 864.210938 L 0 864.210938 Z M 0 0.210938 " fill-opacity="1" fill-rule="nonzero"/></g><g clip-path="url(#f39c17b6cc)"><g clip-path="url(#6da73dc3af)"><g clip-path="url(#f41b835bb7)"><g clip-path="url(#a177e97633)"><path fill="#ef6a6a" d="M 268.578125 660.757812 L 354.328125 664.984375 L 489.800781 356.742188 L 428.707031 296.425781 Z M 268.578125 660.757812 " fill-opacity="1" fill-rule="nonzero"/></g></g></g></g><g clip-path="url(#294303d158)"><g clip-path="url(#9500328373)"><g clip-path="url(#5e5df62c87)"><g clip-path="url(#6702f1f67d)"><path fill="#f9954b" d="M 575.335938 441.1875 L 514.242188 380.867188 L 388.628906 666.675781 L 474.378906 670.894531 Z M 575.335938 441.1875 " fill-opacity="1" fill-rule="nonzero"/></g></g></g></g><g clip-path="url(#9d0ec5bb22)"><g clip-path="url(#3ad19841a1)"><g clip-path="url(#0655b44f1d)"><g clip-path="url(#25d8ec6417)"><path fill="#f9ca48" d="M 508.679688 672.585938 L 645.878906 679.34375 L 697.53125 561.816406 L 599.777344 465.3125 Z M 508.679688 672.585938 " fill-opacity="1" fill-rule="nonzero"/></g></g></g></g><g clip-path="url(#20eda5e258)"><g clip-path="url(#d178e42f2b)"><g clip-path="url(#d246375643)"><g clip-path="url(#c0fbf43b94)"><path fill="#66becc" d="M 122.859375 633.523438 L 174.253906 656.113281 L 234.28125 659.066406 L 404.265625 272.300781 L 361.5 230.078125 L 310.101562 207.492188 Z M 122.859375 633.523438 " fill-opacity="1" fill-rule="nonzero"/></g></g></g></g><g clip-path="url(#b888ab3072)"><g clip-path="url(#080b8a0be4)"><g clip-path="url(#1c938105b5)"><g clip-path="url(#c181a97eac)"><path fill="#f9954b" d="M 605.625 591.539062 C 603.839844 595.59375 599.105469 597.4375 595.050781 595.65625 C 591 593.875 589.15625 589.136719 590.9375 585.082031 C 592.71875 581.027344 597.457031 579.183594 601.507812 580.964844 L 607.964844 566.273438 C 598.40625 562.074219 587.621094 564.6875 580.832031 571.878906 L 572.140625 568.058594 L 565.683594 582.746094 L 574.375 586.570312 C 573.667969 596.433594 579.035156 606.144531 588.597656 610.347656 C 600.738281 615.683594 614.96875 610.140625 620.308594 597.992188 C 622.089844 593.9375 626.824219 592.09375 630.878906 593.875 C 634.929688 595.65625 636.773438 600.390625 634.992188 604.445312 C 633.210938 608.5 628.476562 610.34375 624.421875 608.5625 L 617.964844 623.253906 C 627.523438 627.457031 638.308594 624.84375 645.097656 617.652344 L 653.789062 621.472656 L 660.246094 606.78125 L 651.554688 602.960938 C 652.261719 593.097656 646.894531 583.382812 637.335938 579.183594 C 625.191406 573.84375 610.960938 579.386719 605.625 591.539062 Z M 605.625 591.539062 " fill-opacity="1" fill-rule="nonzero"/></g></g></g></g><g clip-path="url(#02bc0eeac2)"><g clip-path="url(#f02ee85342)"><g clip-path="url(#0da04d3d78)"><g clip-path="url(#a2bc867582)"><path fill="#3b2b5b" d="M 374.875 194.023438 Z M 431.507812 253.585938 C 431.738281 253.699219 431.949219 253.78125 432.140625 253.835938 C 434.09375 254.394531 436.03125 254.148438 437.734375 253.125 C 440.582031 251.417969 442.683594 247.675781 443.8125 242.300781 C 445.738281 233.15625 436.835938 226.34375 436.457031 226.058594 C 436.09375 225.789062 435.582031 225.859375 435.3125 226.21875 C 435.039062 226.578125 435.113281 227.089844 435.472656 227.359375 C 435.558594 227.425781 443.921875 233.835938 442.210938 241.957031 C 441.175781 246.878906 439.335938 250.257812 436.886719 251.726562 C 435.5625 252.523438 434.113281 252.707031 432.585938 252.269531 C 429.417969 251.371094 417.207031 238.03125 410.644531 230.871094 C 408.128906 228.121094 406.140625 225.953125 405.089844 224.914062 C 404.414062 224.242188 403.128906 223.003906 401.460938 221.386719 C 395.078125 215.210938 375.710938 196.46875 374.886719 194.054688 C 374.996094 193.074219 379.980469 190.636719 385.414062 188.914062 C 385.84375 188.777344 386.082031 188.320312 385.941406 187.890625 C 385.804688 187.460938 385.34375 187.222656 384.914062 187.359375 C 381.335938 188.492188 373.035156 191.425781 373.253906 194.199219 C 373.386719 195.902344 380.722656 203.585938 400.324219 222.554688 C 401.988281 224.164062 403.265625 225.402344 403.941406 226.070312 C 404.960938 227.082031 406.9375 229.238281 409.441406 231.96875 C 418.921875 242.320312 427.738281 251.742188 431.507812 253.585938 " fill-opacity="1" fill-rule="nonzero"/></g></g></g></g><g clip-path="url(#58bf8021a5)"><g clip-path="url(#c37a99f7cc)"><g clip-path="url(#68eae54114)"><g clip-path="url(#636d08e651)"><path fill="#3b2b5b" d="M 359.953125 193.066406 C 360.964844 190.148438 363.855469 189.105469 367.328125 189.320312 C 370.480469 189.515625 376.769531 196.246094 376.558594 196.644531 C 376.351562 197.042969 375.925781 197.175781 375.546875 196.96875 C 375.460938 196.925781 368.371094 191.09375 365.566406 191.125 C 364.003906 191.140625 362.273438 191.367188 361.496094 193.605469 C 361.148438 194.613281 361.207031 195.84375 361.664062 197.304688 C 361.160156 197.480469 360.640625 197.664062 360.121094 197.851562 C 359.527344 196.011719 359.476562 194.4375 359.953125 193.066406 " fill-opacity="1" fill-rule="nonzero"/></g></g></g></g><g clip-path="url(#0feec39a10)"><g clip-path="url(#b29121099d)"><g clip-path="url(#b26e9f5f04)"><g clip-path="url(#95214e4ab5)"><path fill="#3b2b5b" d="M 380.578125 199.429688 C 380.960938 199.617188 381.4375 199.527344 381.726562 199.183594 C 382.058594 198.785156 382.003906 198.1875 381.597656 197.851562 C 376.402344 193.542969 369.441406 186.152344 371.015625 183.972656 C 372.792969 181.507812 381.226562 184.546875 385.03125 186.40625 C 385.503906 186.636719 386.070312 186.441406 386.300781 185.972656 C 386.53125 185.503906 386.335938 184.9375 385.863281 184.707031 C 384.519531 184.050781 372.667969 178.433594 369.472656 182.863281 C 366.292969 187.269531 378.007812 197.332031 380.386719 199.304688 C 380.445312 199.355469 380.511719 199.398438 380.578125 199.429688 " fill-opacity="1" fill-rule="nonzero"/></g></g></g></g><g clip-path="url(#da80316fa2)"><g clip-path="url(#53a513bdfe)"><g clip-path="url(#a148c74cc6)"><g clip-path="url(#64d99b8ef2)"><path fill="#c43b72" d="M 418.949219 226.496094 C 419.265625 218.03125 437.570312 200.589844 429.652344 194.371094 C 425.617188 191.199219 415.835938 197.628906 403.886719 191.695312 C 393.480469 186.527344 389.65625 176.980469 400.832031 174.101562 C 408.472656 175.011719 412.113281 177.050781 421.183594 177.941406 C 425.378906 178.511719 444.632812 181.125 446.789062 193.734375 C 448.820312 205.601562 422.691406 233.40625 422.691406 233.40625 C 422.691406 233.40625 418.753906 231.636719 418.949219 226.496094 " fill-opacity="1" fill-rule="nonzero"/></g></g></g></g><g clip-path="url(#0f57004aac)"><g clip-path="url(#71e0324bab)"><g clip-path="url(#23665f7a33)"><g clip-path="url(#ba001f470a)"><path fill="#9b89e5" d="M 416.757812 234.234375 C 416.757812 234.234375 414.9375 235.414062 415.3125 236.3125 C 415.691406 237.210938 420.566406 241.253906 421.96875 241.808594 C 423.367188 242.367188 423.113281 239.644531 423.113281 239.644531 L 416.757812 234.234375 " fill-opacity="1" fill-rule="nonzero"/></g></g></g></g><g clip-path="url(#69793f2e24)"><g clip-path="url(#3dbe6c9416)"><g clip-path="url(#1e3fde96bc)"><g clip-path="url(#dbc419d560)"><path fill="#4e3e75" d="M 423.507812 229.132812 C 423.9375 228.898438 424.652344 228.769531 425.183594 230.144531 C 425.714844 231.515625 421.382812 234.722656 421.429688 235.945312 C 421.472656 237.167969 423.453125 238.929688 423.101562 240.277344 C 422.832031 241.3125 418.808594 237.804688 416.9375 236.105469 C 416.402344 235.621094 416.324219 234.8125 416.757812 234.234375 C 417.238281 233.59375 418.152344 230.726562 418.566406 230.128906 C 419.351562 228.992188 420.488281 229.414062 421.28125 229.855469 C 422.078125 230.296875 422.992188 229.410156 423.507812 229.132812 " fill-opacity="1" fill-rule="nonzero"/></g></g></g></g><g clip-path="url(#f1844994e6)"><g clip-path="url(#9f3579e04e)"><g clip-path="url(#a7dd50908b)"><g clip-path="url(#2e5668fa21)"><path fill="#9b89e5" d="M 436.769531 172.511719 C 436.769531 172.511719 439.773438 173.796875 440.351562 173.226562 C 440.925781 172.65625 440.734375 171.886719 441.484375 171.640625 C 442.230469 171.394531 441.753906 169.769531 440.792969 169.574219 C 439.835938 169.378906 437.25 169.667969 436.4375 170.492188 C 435.625 171.320312 436.769531 172.511719 436.769531 172.511719 " fill-opacity="1" fill-rule="nonzero"/></g></g></g></g><g clip-path="url(#3b9b47817c)"><g clip-path="url(#7908db7698)"><g clip-path="url(#8def9236ec)"><g clip-path="url(#dfb60cfa5a)"><path fill="#baa4ff" d="M 408.75 183.410156 C 413.9375 187.753906 433.855469 183.832031 437.320312 177.027344 C 438.605469 174.496094 436.214844 169.535156 436.214844 169.535156 L 413.964844 175.476562 C 413.964844 175.476562 418.34375 162.453125 415.910156 156.691406 C 414.632812 153.667969 411.683594 155.078125 410.613281 156.144531 C 408.933594 157.820312 401.792969 177.582031 408.75 183.410156 " fill-opacity="1" fill-rule="nonzero"/></g></g></g></g><g clip-path="url(#df3073f38b)"><g clip-path="url(#ba004ab698)"><g clip-path="url(#25777676bf)"><g clip-path="url(#6163467883)"><path fill="#3b2b5b" d="M 407.089844 142.65625 C 407.207031 142.851562 409.949219 143.0625 412.542969 144.695312 C 415.304688 146.429688 414.40625 147.808594 415.054688 147.652344 C 420.714844 146.289062 415.925781 137.066406 413.648438 135.695312 C 411.203125 134.222656 406.144531 141.042969 407.089844 142.65625 " fill-opacity="1" fill-rule="nonzero"/></g></g></g></g><g clip-path="url(#65f0a9da4f)"><g clip-path="url(#fe36b0c4c1)"><g clip-path="url(#4e7f228d00)"><g clip-path="url(#552f6dca9f)"><path fill="#7f65c1" d="M 415.191406 134.890625 C 415.203125 135.734375 414.527344 136.425781 413.683594 136.433594 C 412.835938 136.441406 412.140625 135.765625 412.128906 134.921875 C 412.117188 134.078125 412.796875 133.386719 413.640625 133.378906 C 414.488281 133.371094 415.179688 134.046875 415.191406 134.890625 " fill-opacity="1" fill-rule="nonzero"/></g></g></g></g><g clip-path="url(#fdaf0b4a15)"><g clip-path="url(#b39d190478)"><g clip-path="url(#ec6c4c4224)"><g clip-path="url(#db486df18d)"><path fill="#ffcb48" d="M 414.378906 142.296875 C 414.378906 142.296875 414.472656 139.578125 411.171875 139.253906 C 406.484375 138.792969 405.550781 144.402344 394.023438 138.09375 C 387.953125 134.777344 380.371094 146.976562 387.1875 152.089844 C 392.261719 155.898438 410 157.835938 412.871094 155.726562 C 415.59375 153.726562 420.371094 142.636719 414.378906 142.296875 " fill-opacity="1" fill-rule="nonzero"/></g></g></g></g><g clip-path="url(#7b2aee2e31)"><g clip-path="url(#1adc2e876a)"><g clip-path="url(#5e48e14f26)"><g clip-path="url(#9a90176bc6)"><path fill="#ffcb48" d="M 374.507812 185.078125 L 410.035156 224.9375 C 412.34375 227.527344 415.589844 229.089844 419.050781 229.28125 L 438.585938 230.359375 C 440.472656 230.464844 441.46875 228.175781 440.105469 226.867188 L 392.199219 180.878906 C 391.769531 180.46875 391.179688 180.261719 390.589844 180.316406 L 375.832031 181.707031 C 374.171875 181.863281 373.398438 183.832031 374.507812 185.078125 " fill-opacity="1" fill-rule="nonzero"/></g></g></g></g><g clip-path="url(#2c45e80af6)"><g clip-path="url(#f4cb01c174)"><g clip-path="url(#4d16085748)"><g clip-path="url(#03269d818e)"><path fill="#ff5e4d" d="M 385.746094 172.433594 C 390.238281 173.238281 393.308594 174.355469 396.9375 175.425781 L 392.746094 193.5625 C 391.410156 193.125 390.03125 192.53125 388.617188 191.722656 C 378.527344 185.960938 377.164062 179.464844 385.746094 172.433594 " fill-opacity="1" fill-rule="nonzero"/></g></g></g></g><g clip-path="url(#d30678c1de)"><g clip-path="url(#8b6394067c)"><g clip-path="url(#d3ba861f97)"><g clip-path="url(#00f8759bc5)"><g clip-path="url(#163ef29d87)"><g clip-path="url(#b323ddc7f9)"><path fill="#3b2b5b" d="M 371.933594 160.121094 C 377.675781 157.199219 388.957031 162.195312 389.433594 162.410156 C 389.859375 162.613281 390.03125 163.078125 389.847656 163.488281 C 389.664062 163.898438 389.179688 164.082031 388.769531 163.898438 C 388.660156 163.847656 377.730469 159.003906 372.683594 161.574219 C 372.351562 161.742188 372.328125 161.898438 372.316406 161.972656 C 372.097656 163.441406 375.964844 167.210938 379.378906 170.539062 C 384.945312 175.960938 390.699219 181.566406 389.703125 185.773438 C 388.074219 192.660156 385.539062 196.023438 382.242188 198.652344 C 387.507812 203.742188 419.554688 234.804688 423.390625 240.652344 C 425.292969 243.542969 424.917969 247.253906 422.410156 250.328125 C 420.109375 253.152344 415.800781 255.46875 411.773438 253.890625 C 411.671875 253.851562 411.566406 253.804688 411.453125 253.75 C 404.15625 250.183594 370.148438 213.855469 363.394531 204.023438 C 361.777344 201.671875 360.695312 199.636719 360.121094 197.851562 C 360.640625 197.664062 361.160156 197.480469 361.664062 197.304688 C 362.179688 198.9375 363.199219 200.859375 364.742188 203.105469 C 372.089844 213.800781 406.609375 250.117188 412.367188 252.371094 C 415.484375 253.597656 419.140625 251.75 421.140625 249.296875 C 423.210938 246.753906 423.542969 243.851562 422.023438 241.539062 C 418.03125 235.457031 380.800781 199.527344 380.425781 199.164062 C 380.253906 198.996094 380.160156 198.761719 380.175781 198.523438 C 380.191406 198.285156 380.308594 198.066406 380.503906 197.921875 C 383.980469 195.339844 386.46875 192.34375 388.109375 185.394531 C 388.890625 182.085938 382.984375 176.328125 378.238281 171.703125 C 373.351562 166.9375 370.371094 163.910156 370.699219 161.726562 C 370.773438 161.242188 371.046875 160.570312 371.933594 160.121094 " fill-opacity="1" fill-rule="nonzero"/></g></g></g></g></g></g><g clip-path="url(#cec405d828)"><g clip-path="url(#395dfd06d7)"><g clip-path="url(#1a57411615)"><g clip-path="url(#a978102b5f)"><path fill="#ff5e4d" d="M 405.839844 177.449219 C 410 178.261719 429.070312 181.984375 430.488281 194.695312 C 431.824219 206.65625 404.117188 232.894531 404.117188 232.894531 C 404.117188 232.894531 400.289062 230.902344 400.78125 225.78125 C 401.589844 217.351562 420.882812 201.003906 413.339844 194.335938 C 409.964844 191.355469 402.386719 196.691406 392.746094 193.5625 L 396.9375 175.425781 C 399.429688 176.160156 402.179688 176.875 405.839844 177.449219 " fill-opacity="1" fill-rule="nonzero"/></g></g></g></g><g clip-path="url(#83d2eb9aea)"><g clip-path="url(#3b5fd9378c)"><g clip-path="url(#517d36de84)"><g clip-path="url(#b2b582b5e9)"><path fill="#baa4ff" d="M 415.171875 154.089844 C 414.070312 151.6875 411.128906 148.722656 403.683594 146.542969 C 399.855469 145.421875 394.109375 143.4375 389.269531 149.257812 C 381.945312 158.066406 382.203125 173.101562 383.097656 175.789062 C 389.617188 181.53125 406.214844 176.390625 407.042969 175.25 C 403.542969 164.308594 417.5 159.183594 415.171875 154.089844 " fill-opacity="1" fill-rule="nonzero"/></g></g></g></g><g clip-path="url(#1986e08195)"><g clip-path="url(#2c6c15da34)"><g clip-path="url(#81c9df9c74)"><g clip-path="url(#36b233752e)"><path fill="#ff97a6" d="M 409.875 146.277344 C 409.875 146.277344 407.390625 150.273438 407.386719 150.851562 C 407.378906 151.425781 407.890625 152.4375 408.871094 151.605469 C 409.84375 150.777344 411.140625 146.871094 411.140625 146.871094 L 409.875 146.277344 " fill-opacity="1" fill-rule="nonzero"/></g></g></g></g><g clip-path="url(#fc68af10a4)"><g clip-path="url(#0b2fab7443)"><g clip-path="url(#a2751384ed)"><g clip-path="url(#cf8e8cb9e8)"><path fill="#c95d77" d="M 408.132812 149.222656 C 408.445312 149.816406 409.015625 150.328125 409.792969 150.214844 C 410.171875 149.453125 410.53125 148.558594 410.78125 147.882812 L 409.3125 147.195312 C 408.964844 147.773438 408.515625 148.535156 408.132812 149.222656 " fill-opacity="1" fill-rule="nonzero"/></g></g></g></g><g clip-path="url(#11c6c53da5)"><g clip-path="url(#c86b49e4d6)"><g clip-path="url(#4aeac46fdf)"><g clip-path="url(#7c4b7511bb)"><path fill="#ff97a6" d="M 413.269531 148.113281 C 413.878906 147.679688 414.929688 145.152344 414.929688 145.152344 C 413.488281 144.40625 412.796875 142.75 412.714844 142.542969 C 411.988281 142.328125 411.167969 141.921875 410.394531 142 C 409.542969 142.085938 409.054688 142.988281 408.679688 143.652344 C 408.300781 144.3125 407.867188 145.632812 407.976562 146.410156 C 408.082031 147.125 408.929688 148.15625 409.550781 148.46875 C 411.421875 149.40625 412.199219 149.207031 413.269531 148.113281 " fill-opacity="1" fill-rule="nonzero"/></g></g></g></g><g clip-path="url(#c6fb106bfc)"><g clip-path="url(#4cc328ad42)"><g clip-path="url(#075f40633b)"><g clip-path="url(#bc4fd321e1)"><path fill="#9b89e5" d="M 398.164062 233.515625 C 398.164062 233.515625 396.261719 234.554688 396.570312 235.480469 C 396.882812 236.40625 401.449219 240.789062 402.804688 241.449219 C 404.160156 242.109375 404.109375 239.375 404.109375 239.375 L 398.164062 233.515625 " fill-opacity="1" fill-rule="nonzero"/></g></g></g></g><g clip-path="url(#1dbc112a44)"><g clip-path="url(#489721168c)"><g clip-path="url(#121572e29c)"><g clip-path="url(#aa5d21e219)"><path fill="#4e3e75" d="M 405.277344 228.921875 C 405.722656 228.722656 406.445312 228.644531 406.875 230.054688 C 407.304688 231.460938 402.746094 234.339844 402.699219 235.5625 C 402.652344 236.785156 404.5 238.683594 404.046875 240.003906 C 403.703125 241.015625 399.949219 237.222656 398.207031 235.394531 C 397.710938 234.871094 397.691406 234.058594 398.164062 233.515625 C 398.691406 232.910156 399.8125 230.121094 400.273438 229.550781 C 401.140625 228.476562 402.242188 228.980469 403 229.480469 C 403.761719 229.976562 404.742188 229.160156 405.277344 228.921875 " fill-opacity="1" fill-rule="nonzero"/></g></g></g></g><g clip-path="url(#3147e76040)"><g clip-path="url(#82ac8d5ea0)"><g clip-path="url(#dac626fead)"><g clip-path="url(#bf021d2828)"><path fill="#ff9a2e" d="M 394.023438 138.09375 C 405.550781 144.402344 406.484375 138.792969 411.171875 139.253906 C 412.425781 139.378906 413.1875 139.847656 413.652344 140.378906 C 411.496094 140.625 408.253906 141.226562 407.089844 142.65625 C 405.289062 144.875 395.902344 140.324219 392.359375 143.632812 C 390.257812 145.597656 389.949219 150.070312 392.160156 154.332031 C 390.078125 153.691406 388.316406 152.9375 387.1875 152.089844 C 380.371094 146.976562 387.953125 134.777344 394.023438 138.09375 " fill-opacity="1" fill-rule="nonzero"/></g></g></g></g><g clip-path="url(#bd539c0091)"><g clip-path="url(#0868e2750e)"><g clip-path="url(#39a619dec3)"><g clip-path="url(#04126cdf63)"><path fill="#3b2b5b" d="M 414.683594 174.082031 Z M 418.023438 236.085938 C 418.109375 236.128906 418.210938 236.148438 418.316406 236.136719 C 418.617188 236.105469 418.832031 235.839844 418.800781 235.542969 C 416.417969 212.992188 413.199219 176.5 414.664062 174.109375 C 415.859375 173.511719 419.757812 175.523438 422.898438 177.140625 C 425.894531 178.6875 428.726562 180.144531 430.679688 180.410156 C 433.269531 180.757812 435.035156 178.164062 436.589844 175.875 C 437.847656 174.027344 439.035156 172.285156 440.324219 172.371094 C 442.429688 174.453125 441.429688 209.941406 440.296875 231.933594 C 440.28125 232.234375 440.511719 232.488281 440.8125 232.507812 C 441.113281 232.523438 441.371094 232.292969 441.386719 231.992188 C 441.394531 231.84375 442.160156 216.882812 442.492188 202.0625 C 443.171875 171.59375 441.4375 171.402344 440.503906 171.296875 C 438.539062 171.074219 437.152344 173.105469 435.6875 175.261719 C 434.238281 177.390625 432.742188 179.589844 430.820312 179.332031 C 429.054688 179.09375 426.179688 177.609375 423.394531 176.175781 C 419.273438 174.050781 415.714844 172.214844 414.058594 173.203125 C 413.417969 173.582031 412.222656 174.292969 414.828125 205.226562 C 416.105469 220.355469 417.703125 235.5 417.71875 235.652344 C 417.738281 235.84375 417.859375 236.003906 418.023438 236.085938 " fill-opacity="1" fill-rule="nonzero"/></g></g></g></g><g clip-path="url(#de08eab477)"><g clip-path="url(#4ad3c03b58)"><g clip-path="url(#4d73546460)"><g clip-path="url(#a11112aa1b)"><path fill="#9b89e5" d="M 410.179688 173.523438 C 410.179688 173.523438 412.351562 175.964844 413.117188 175.691406 C 413.886719 175.421875 414.039062 174.648438 414.820312 174.746094 C 415.605469 174.839844 415.867188 173.167969 415.082031 172.582031 C 414.296875 172 411.832031 171.164062 410.742188 171.5625 C 409.652344 171.960938 410.179688 173.523438 410.179688 173.523438 " fill-opacity="1" fill-rule="nonzero"/></g></g></g></g><g clip-path="url(#e02308f57a)"><g clip-path="url(#59e627d8ba)"><g clip-path="url(#8b5e47892e)"><g clip-path="url(#c7dec91504)"><path fill="#7f65c1" d="M 380.574219 171.246094 C 383.414062 177.375 403.140625 182.304688 409.191406 177.632812 C 411.441406 175.898438 411.394531 170.398438 411.394531 170.398438 L 388.695312 166.300781 C 388.695312 166.300781 398.230469 156.40625 398.492188 150.164062 C 398.628906 146.890625 395.351562 146.914062 393.925781 147.421875 C 391.6875 148.21875 376.765625 163.027344 380.574219 171.246094 " fill-opacity="1" fill-rule="nonzero"/></g></g></g></g><g clip-path="url(#dae7a7cf08)"><g clip-path="url(#faadb31f03)"><g clip-path="url(#f6cc9f8f53)"><g clip-path="url(#2218af02b4)"><g clip-path="url(#15f5cda7e2)"><g clip-path="url(#a561e2fd71)"><path fill="#ffad96" d="M 380.828125 130.058594 L 381.265625 129.523438 L 382.320312 130.5 C 382.4375 130.265625 382.617188 130.027344 382.832031 129.796875 L 381.746094 128.808594 L 382.226562 128.328125 L 383.3125 129.335938 C 383.550781 129.132812 383.804688 128.941406 384.0625 128.769531 L 382.953125 127.761719 L 383.378906 127.253906 L 384.632812 128.417969 C 384.742188 128.355469 384.851562 128.296875 384.957031 128.242188 L 383.617188 127.027344 L 383.992188 126.667969 L 385.699219 128.257812 C 387.800781 129.566406 396.503906 138.492188 408.316406 147.152344 C 410.332031 148.628906 412.480469 149.257812 412.480469 149.257812 C 415.140625 149.507812 414.015625 151.875 413.746094 152.8125 C 413.476562 153.75 411.527344 153.886719 408.914062 153.058594 C 400.277344 150.3125 384.730469 135.089844 382.472656 131.851562 L 382.46875 131.851562 L 380.828125 130.058594 " fill-opacity="1" fill-rule="nonzero"/></g></g></g></g></g></g></svg>