<svg xmlns="http://www.w3.org/2000/svg" xmlns:xlink="http://www.w3.org/1999/xlink" width="1366" zoomAndPan="magnify" viewBox="0 0 1024.5 863.999991" height="1152" preserveAspectRatio="xMidYMid meet" version="1.0"><defs><clipPath id="2f88fc0f4e"><path d="M 0 0.210938 L 1024 0.210938 L 1024 863.789062 L 0 863.789062 Z M 0 0.210938 " clip-rule="nonzero"/></clipPath><clipPath id="2a89be4a44"><path d="M 691 505 L 843 505 L 843 657 L 691 657 Z M 691 505 " clip-rule="nonzero"/></clipPath><clipPath id="1259aeeb0e"><path d="M 35.351562 394.960938 L 248.101562 32.832031 L 938.085938 438.199219 L 725.335938 800.324219 Z M 35.351562 394.960938 " clip-rule="nonzero"/></clipPath><clipPath id="7144ce6f2f"><path d="M 35.351562 394.960938 L 248.101562 32.832031 L 938.085938 438.199219 L 725.335938 800.324219 Z M 35.351562 394.960938 " clip-rule="nonzero"/></clipPath><clipPath id="5c2e09d69b"><path d="M 35.351562 394.960938 L 248.101562 32.832031 L 938.085938 438.199219 L 725.335938 800.324219 Z M 35.351562 394.960938 " clip-rule="nonzero"/></clipPath><clipPath id="f2de9e75d4"><path d="M 662.933594 607.796875 L 739.59375 477.316406 L 870.21875 554.058594 L 793.558594 684.539062 Z M 662.933594 607.796875 " clip-rule="nonzero"/></clipPath><clipPath id="a42be7087d"><path d="M 662.933594 607.796875 L 739.59375 477.316406 L 870.074219 553.972656 L 793.414062 684.457031 Z M 662.933594 607.796875 " clip-rule="nonzero"/></clipPath><clipPath id="2a568aa213"><path d="M 699 513 L 835 513 L 835 648 L 699 648 Z M 699 513 " clip-rule="nonzero"/></clipPath><clipPath id="8bca781d1d"><path d="M 35.351562 394.960938 L 248.101562 32.832031 L 938.085938 438.199219 L 725.335938 800.324219 Z M 35.351562 394.960938 " clip-rule="nonzero"/></clipPath><clipPath id="4b97034baa"><path d="M 35.351562 394.960938 L 248.101562 32.832031 L 938.085938 438.199219 L 725.335938 800.324219 Z M 35.351562 394.960938 " clip-rule="nonzero"/></clipPath><clipPath id="ab758bc583"><path d="M 35.351562 394.960938 L 248.101562 32.832031 L 938.085938 438.199219 L 725.335938 800.324219 Z M 35.351562 394.960938 " clip-rule="nonzero"/></clipPath><clipPath id="8fcd0b1a2d"><path d="M 717 541 L 818 541 L 818 616 L 717 616 Z M 717 541 " clip-rule="nonzero"/></clipPath><clipPath id="be7870f3fb"><path d="M 35.351562 394.960938 L 248.101562 32.832031 L 938.085938 438.199219 L 725.335938 800.324219 Z M 35.351562 394.960938 " clip-rule="nonzero"/></clipPath><clipPath id="46c5943d68"><path d="M 35.351562 394.960938 L 248.101562 32.832031 L 938.085938 438.199219 L 725.335938 800.324219 Z M 35.351562 394.960938 " clip-rule="nonzero"/></clipPath><clipPath id="52a370afa7"><path d="M 35.351562 394.960938 L 248.101562 32.832031 L 938.085938 438.199219 L 725.335938 800.324219 Z M 35.351562 394.960938 " clip-rule="nonzero"/></clipPath><clipPath id="a034e7773f"><path d="M 357 237 L 590 237 L 590 566 L 357 566 Z M 357 237 " clip-rule="nonzero"/></clipPath><clipPath id="c333dc6a9d"><path d="M 35.351562 394.960938 L 248.101562 32.832031 L 938.085938 438.199219 L 725.335938 800.324219 Z M 35.351562 394.960938 " clip-rule="nonzero"/></clipPath><clipPath id="2b82698218"><path d="M 35.351562 394.960938 L 248.101562 32.832031 L 938.085938 438.199219 L 725.335938 800.324219 Z M 35.351562 394.960938 " clip-rule="nonzero"/></clipPath><clipPath id="c95371e622"><path d="M 35.351562 394.960938 L 248.101562 32.832031 L 938.085938 438.199219 L 725.335938 800.324219 Z M 35.351562 394.960938 " clip-rule="nonzero"/></clipPath><clipPath id="1cd4cd6de3"><path d="M 285 179 L 544 179 L 544 554 L 285 554 Z M 285 179 " clip-rule="nonzero"/></clipPath><clipPath id="243d48c28c"><path d="M 35.351562 394.960938 L 248.101562 32.832031 L 938.085938 438.199219 L 725.335938 800.324219 Z M 35.351562 394.960938 " clip-rule="nonzero"/></clipPath><clipPath id="49670e3527"><path d="M 35.351562 394.960938 L 248.101562 32.832031 L 938.085938 438.199219 L 725.335938 800.324219 Z M 35.351562 394.960938 " clip-rule="nonzero"/></clipPath><clipPath id="1a764d481f"><path d="M 35.351562 394.960938 L 248.101562 32.832031 L 938.085938 438.199219 L 725.335938 800.324219 Z M 35.351562 394.960938 " clip-rule="nonzero"/></clipPath><clipPath id="7d9925cdf1"><path d="M 285.617188 541.886719 L 498.335938 179.816406 L 557.398438 214.515625 L 344.683594 576.589844 Z M 285.617188 541.886719 " clip-rule="nonzero"/></clipPath><clipPath id="05b99b0eb6"><path d="M 285.617188 541.886719 L 498.273438 179.921875 L 557.335938 214.625 L 344.683594 576.589844 Z M 285.617188 541.886719 " clip-rule="nonzero"/></clipPath><clipPath id="618a2989e9"><path d="M 429 294 L 635 294 L 635 578 L 429 578 Z M 429 294 " clip-rule="nonzero"/></clipPath><clipPath id="de8e3e16ac"><path d="M 35.351562 394.960938 L 248.101562 32.832031 L 938.085938 438.199219 L 725.335938 800.324219 Z M 35.351562 394.960938 " clip-rule="nonzero"/></clipPath><clipPath id="94f9cd1bda"><path d="M 35.351562 394.960938 L 248.101562 32.832031 L 938.085938 438.199219 L 725.335938 800.324219 Z M 35.351562 394.960938 " clip-rule="nonzero"/></clipPath><clipPath id="4f63ca0e30"><path d="M 35.351562 394.960938 L 248.101562 32.832031 L 938.085938 438.199219 L 725.335938 800.324219 Z M 35.351562 394.960938 " clip-rule="nonzero"/></clipPath><clipPath id="045b993b19"><path d="M 502 351 L 681 351 L 681 590 L 502 590 Z M 502 351 " clip-rule="nonzero"/></clipPath><clipPath id="86cb34d741"><path d="M 35.351562 394.960938 L 248.101562 32.832031 L 938.085938 438.199219 L 725.335938 800.324219 Z M 35.351562 394.960938 " clip-rule="nonzero"/></clipPath><clipPath id="afdf80b10c"><path d="M 35.351562 394.960938 L 248.101562 32.832031 L 938.085938 438.199219 L 725.335938 800.324219 Z M 35.351562 394.960938 " clip-rule="nonzero"/></clipPath><clipPath id="ecc7856e48"><path d="M 35.351562 394.960938 L 248.101562 32.832031 L 938.085938 438.199219 L 725.335938 800.324219 Z M 35.351562 394.960938 " clip-rule="nonzero"/></clipPath><clipPath id="ff66a32cc6"><path d="M 574 408 L 726 408 L 726 602 L 574 602 Z M 574 408 " clip-rule="nonzero"/></clipPath><clipPath id="795739b2d0"><path d="M 35.351562 394.960938 L 248.101562 32.832031 L 938.085938 438.199219 L 725.335938 800.324219 Z M 35.351562 394.960938 " clip-rule="nonzero"/></clipPath><clipPath id="f9bd28fb25"><path d="M 35.351562 394.960938 L 248.101562 32.832031 L 938.085938 438.199219 L 725.335938 800.324219 Z M 35.351562 394.960938 " clip-rule="nonzero"/></clipPath><clipPath id="a9e51c3a04"><path d="M 35.351562 394.960938 L 248.101562 32.832031 L 938.085938 438.199219 L 725.335938 800.324219 Z M 35.351562 394.960938 " clip-rule="nonzero"/></clipPath><clipPath id="06e4fd65fe"><path d="M 107 243 L 243 243 L 243 364 L 107 364 Z M 107 243 " clip-rule="nonzero"/></clipPath><clipPath id="e5e10f4cfc"><path d="M 35.351562 394.960938 L 248.101562 32.832031 L 938.085938 438.199219 L 725.335938 800.324219 Z M 35.351562 394.960938 " clip-rule="nonzero"/></clipPath><clipPath id="60b59ba4a7"><path d="M 35.351562 394.960938 L 248.101562 32.832031 L 938.085938 438.199219 L 725.335938 800.324219 Z M 35.351562 394.960938 " clip-rule="nonzero"/></clipPath><clipPath id="74636b977c"><path d="M 35.351562 394.960938 L 248.101562 32.832031 L 938.085938 438.199219 L 725.335938 800.324219 Z M 35.351562 394.960938 " clip-rule="nonzero"/></clipPath><clipPath id="eea72a1ed8"><path d="M 107 251 L 238 251 L 238 364 L 107 364 Z M 107 251 " clip-rule="nonzero"/></clipPath><clipPath id="df9ff95f2e"><path d="M 35.351562 394.960938 L 248.101562 32.832031 L 938.085938 438.199219 L 725.335938 800.324219 Z M 35.351562 394.960938 " clip-rule="nonzero"/></clipPath><clipPath id="41be13761a"><path d="M 35.351562 394.960938 L 248.101562 32.832031 L 938.085938 438.199219 L 725.335938 800.324219 Z M 35.351562 394.960938 " clip-rule="nonzero"/></clipPath><clipPath id="14463690ee"><path d="M 35.351562 394.960938 L 248.101562 32.832031 L 938.085938 438.199219 L 725.335938 800.324219 Z M 35.351562 394.960938 " clip-rule="nonzero"/></clipPath><clipPath id="116861679f"><path d="M 156 287 L 204 287 L 204 322 L 156 322 Z M 156 287 " clip-rule="nonzero"/></clipPath><clipPath id="6664e57c43"><path d="M 35.351562 394.960938 L 248.101562 32.832031 L 938.085938 438.199219 L 725.335938 800.324219 Z M 35.351562 394.960938 " clip-rule="nonzero"/></clipPath><clipPath id="a00597a281"><path d="M 35.351562 394.960938 L 248.101562 32.832031 L 938.085938 438.199219 L 725.335938 800.324219 Z M 35.351562 394.960938 " clip-rule="nonzero"/></clipPath><clipPath id="f5029ef61d"><path d="M 35.351562 394.960938 L 248.101562 32.832031 L 938.085938 438.199219 L 725.335938 800.324219 Z M 35.351562 394.960938 " clip-rule="nonzero"/></clipPath><clipPath id="0d6affc01c"><path d="M 161 151 L 297 151 L 297 272 L 161 272 Z M 161 151 " clip-rule="nonzero"/></clipPath><clipPath id="e959daa437"><path d="M 35.351562 394.960938 L 248.101562 32.832031 L 938.085938 438.199219 L 725.335938 800.324219 Z M 35.351562 394.960938 " clip-rule="nonzero"/></clipPath><clipPath id="becaa3255a"><path d="M 35.351562 394.960938 L 248.101562 32.832031 L 938.085938 438.199219 L 725.335938 800.324219 Z M 35.351562 394.960938 " clip-rule="nonzero"/></clipPath><clipPath id="3c96fe55c0"><path d="M 35.351562 394.960938 L 248.101562 32.832031 L 938.085938 438.199219 L 725.335938 800.324219 Z M 35.351562 394.960938 " clip-rule="nonzero"/></clipPath><clipPath id="b9c24876fc"><path d="M 161 160 L 292 160 L 292 272 L 161 272 Z M 161 160 " clip-rule="nonzero"/></clipPath><clipPath id="730a9051dc"><path d="M 35.351562 394.960938 L 248.101562 32.832031 L 938.085938 438.199219 L 725.335938 800.324219 Z M 35.351562 394.960938 " clip-rule="nonzero"/></clipPath><clipPath id="011fcb7662"><path d="M 35.351562 394.960938 L 248.101562 32.832031 L 938.085938 438.199219 L 725.335938 800.324219 Z M 35.351562 394.960938 " clip-rule="nonzero"/></clipPath><clipPath id="4720bc7f69"><path d="M 35.351562 394.960938 L 248.101562 32.832031 L 938.085938 438.199219 L 725.335938 800.324219 Z M 35.351562 394.960938 " clip-rule="nonzero"/></clipPath><clipPath id="c1f435c479"><path d="M 210 196 L 257 196 L 257 231 L 210 231 Z M 210 196 " clip-rule="nonzero"/></clipPath><clipPath id="936b9cc4c4"><path d="M 35.351562 394.960938 L 248.101562 32.832031 L 938.085938 438.199219 L 725.335938 800.324219 Z M 35.351562 394.960938 " clip-rule="nonzero"/></clipPath><clipPath id="cb5b0afabe"><path d="M 35.351562 394.960938 L 248.101562 32.832031 L 938.085938 438.199219 L 725.335938 800.324219 Z M 35.351562 394.960938 " clip-rule="nonzero"/></clipPath><clipPath id="6ff860ace1"><path d="M 35.351562 394.960938 L 248.101562 32.832031 L 938.085938 438.199219 L 725.335938 800.324219 Z M 35.351562 394.960938 " clip-rule="nonzero"/></clipPath><clipPath id="addf51518c"><path d="M 206 360 L 342 360 L 342 481 L 206 481 Z M 206 360 " clip-rule="nonzero"/></clipPath><clipPath id="0fb9150568"><path d="M 35.351562 394.960938 L 248.101562 32.832031 L 938.085938 438.199219 L 725.335938 800.324219 Z M 35.351562 394.960938 " clip-rule="nonzero"/></clipPath><clipPath id="46cced3939"><path d="M 35.351562 394.960938 L 248.101562 32.832031 L 938.085938 438.199219 L 725.335938 800.324219 Z M 35.351562 394.960938 " clip-rule="nonzero"/></clipPath><clipPath id="827cca2166"><path d="M 35.351562 394.960938 L 248.101562 32.832031 L 938.085938 438.199219 L 725.335938 800.324219 Z M 35.351562 394.960938 " clip-rule="nonzero"/></clipPath><clipPath id="a5ad81f82b"><path d="M 206 369 L 337 369 L 337 481 L 206 481 Z M 206 369 " clip-rule="nonzero"/></clipPath><clipPath id="8063c5c787"><path d="M 35.351562 394.960938 L 248.101562 32.832031 L 938.085938 438.199219 L 725.335938 800.324219 Z M 35.351562 394.960938 " clip-rule="nonzero"/></clipPath><clipPath id="a1a192b974"><path d="M 35.351562 394.960938 L 248.101562 32.832031 L 938.085938 438.199219 L 725.335938 800.324219 Z M 35.351562 394.960938 " clip-rule="nonzero"/></clipPath><clipPath id="b76fee77be"><path d="M 35.351562 394.960938 L 248.101562 32.832031 L 938.085938 438.199219 L 725.335938 800.324219 Z M 35.351562 394.960938 " clip-rule="nonzero"/></clipPath><clipPath id="88eae5670c"><path d="M 254 404 L 302 404 L 302 439 L 254 439 Z M 254 404 " clip-rule="nonzero"/></clipPath><clipPath id="9b4b549a0d"><path d="M 35.351562 394.960938 L 248.101562 32.832031 L 938.085938 438.199219 L 725.335938 800.324219 Z M 35.351562 394.960938 " clip-rule="nonzero"/></clipPath><clipPath id="d641dbaeac"><path d="M 35.351562 394.960938 L 248.101562 32.832031 L 938.085938 438.199219 L 725.335938 800.324219 Z M 35.351562 394.960938 " clip-rule="nonzero"/></clipPath><clipPath id="f47dee315d"><path d="M 35.351562 394.960938 L 248.101562 32.832031 L 938.085938 438.199219 L 725.335938 800.324219 Z M 35.351562 394.960938 " clip-rule="nonzero"/></clipPath><clipPath id="3b8294e2c6"><path d="M 259 269 L 395 269 L 395 390 L 259 390 Z M 259 269 " clip-rule="nonzero"/></clipPath><clipPath id="f860b4596e"><path d="M 35.351562 394.960938 L 248.101562 32.832031 L 938.085938 438.199219 L 725.335938 800.324219 Z M 35.351562 394.960938 " clip-rule="nonzero"/></clipPath><clipPath id="f9e8f84c64"><path d="M 35.351562 394.960938 L 248.101562 32.832031 L 938.085938 438.199219 L 725.335938 800.324219 Z M 35.351562 394.960938 " clip-rule="nonzero"/></clipPath><clipPath id="31da1dbbfa"><path d="M 35.351562 394.960938 L 248.101562 32.832031 L 938.085938 438.199219 L 725.335938 800.324219 Z M 35.351562 394.960938 " clip-rule="nonzero"/></clipPath><clipPath id="a0b7107a28"><path d="M 259 277 L 390 277 L 390 390 L 259 390 Z M 259 277 " clip-rule="nonzero"/></clipPath><clipPath id="3213e041c1"><path d="M 35.351562 394.960938 L 248.101562 32.832031 L 938.085938 438.199219 L 725.335938 800.324219 Z M 35.351562 394.960938 " clip-rule="nonzero"/></clipPath><clipPath id="dd4137da8e"><path d="M 35.351562 394.960938 L 248.101562 32.832031 L 938.085938 438.199219 L 725.335938 800.324219 Z M 35.351562 394.960938 " clip-rule="nonzero"/></clipPath><clipPath id="b52a9be311"><path d="M 35.351562 394.960938 L 248.101562 32.832031 L 938.085938 438.199219 L 725.335938 800.324219 Z M 35.351562 394.960938 " clip-rule="nonzero"/></clipPath><clipPath id="eb29f74f73"><path d="M 308 313 L 356 313 L 356 348 L 308 348 Z M 308 313 " clip-rule="nonzero"/></clipPath><clipPath id="0ff3b3dd28"><path d="M 35.351562 394.960938 L 248.101562 32.832031 L 938.085938 438.199219 L 725.335938 800.324219 Z M 35.351562 394.960938 " clip-rule="nonzero"/></clipPath><clipPath id="7a1d7dfef6"><path d="M 35.351562 394.960938 L 248.101562 32.832031 L 938.085938 438.199219 L 725.335938 800.324219 Z M 35.351562 394.960938 " clip-rule="nonzero"/></clipPath><clipPath id="84ad79126e"><path d="M 35.351562 394.960938 L 248.101562 32.832031 L 938.085938 438.199219 L 725.335938 800.324219 Z M 35.351562 394.960938 " clip-rule="nonzero"/></clipPath><clipPath id="6720e584d6"><path d="M 313 177 L 449 177 L 449 299 L 313 299 Z M 313 177 " clip-rule="nonzero"/></clipPath><clipPath id="c658850dd0"><path d="M 35.351562 394.960938 L 248.101562 32.832031 L 938.085938 438.199219 L 725.335938 800.324219 Z M 35.351562 394.960938 " clip-rule="nonzero"/></clipPath><clipPath id="d8a1d69eec"><path d="M 35.351562 394.960938 L 248.101562 32.832031 L 938.085938 438.199219 L 725.335938 800.324219 Z M 35.351562 394.960938 " clip-rule="nonzero"/></clipPath><clipPath id="fe87929cdb"><path d="M 35.351562 394.960938 L 248.101562 32.832031 L 938.085938 438.199219 L 725.335938 800.324219 Z M 35.351562 394.960938 " clip-rule="nonzero"/></clipPath><clipPath id="713d923f3b"><path d="M 313 186 L 444 186 L 444 299 L 313 299 Z M 313 186 " clip-rule="nonzero"/></clipPath><clipPath id="3fa4c1e487"><path d="M 35.351562 394.960938 L 248.101562 32.832031 L 938.085938 438.199219 L 725.335938 800.324219 Z M 35.351562 394.960938 " clip-rule="nonzero"/></clipPath><clipPath id="1607d0d99f"><path d="M 35.351562 394.960938 L 248.101562 32.832031 L 938.085938 438.199219 L 725.335938 800.324219 Z M 35.351562 394.960938 " clip-rule="nonzero"/></clipPath><clipPath id="d7e6fbeb15"><path d="M 35.351562 394.960938 L 248.101562 32.832031 L 938.085938 438.199219 L 725.335938 800.324219 Z M 35.351562 394.960938 " clip-rule="nonzero"/></clipPath><clipPath id="901384b93c"><path d="M 362 222 L 409 222 L 409 257 L 362 257 Z M 362 222 " clip-rule="nonzero"/></clipPath><clipPath id="49bd1b504d"><path d="M 35.351562 394.960938 L 248.101562 32.832031 L 938.085938 438.199219 L 725.335938 800.324219 Z M 35.351562 394.960938 " clip-rule="nonzero"/></clipPath><clipPath id="0b203770e3"><path d="M 35.351562 394.960938 L 248.101562 32.832031 L 938.085938 438.199219 L 725.335938 800.324219 Z M 35.351562 394.960938 " clip-rule="nonzero"/></clipPath><clipPath id="e4a560b4f8"><path d="M 35.351562 394.960938 L 248.101562 32.832031 L 938.085938 438.199219 L 725.335938 800.324219 Z M 35.351562 394.960938 " clip-rule="nonzero"/></clipPath><clipPath id="c7ac7670e2"><path d="M 549 154 L 617 154 L 617 225 L 549 225 Z M 549 154 " clip-rule="nonzero"/></clipPath><clipPath id="a77273a404"><path d="M 567.796875 86.613281 L 660.316406 140.863281 L 604.929688 235.320312 L 512.410156 181.070312 Z M 567.796875 86.613281 " clip-rule="nonzero"/></clipPath><clipPath id="600037dd44"><path d="M 660.152344 140.765625 L 567.636719 86.519531 L 512.246094 180.976562 L 604.765625 235.226562 Z M 660.152344 140.765625 " clip-rule="nonzero"/></clipPath><clipPath id="9a71295af5"><path d="M 660.152344 140.765625 L 567.636719 86.519531 L 512.246094 180.976562 L 604.765625 235.226562 Z M 660.152344 140.765625 " clip-rule="nonzero"/></clipPath><clipPath id="61e80fb6c3"><path d="M 535 154 L 553 154 L 553 164 L 535 164 Z M 535 154 " clip-rule="nonzero"/></clipPath><clipPath id="f8072c8173"><path d="M 567.796875 86.613281 L 660.316406 140.863281 L 604.929688 235.320312 L 512.410156 181.070312 Z M 567.796875 86.613281 " clip-rule="nonzero"/></clipPath><clipPath id="3baaaee589"><path d="M 660.152344 140.765625 L 567.636719 86.519531 L 512.246094 180.976562 L 604.765625 235.226562 Z M 660.152344 140.765625 " clip-rule="nonzero"/></clipPath><clipPath id="a945203b6f"><path d="M 660.152344 140.765625 L 567.636719 86.519531 L 512.246094 180.976562 L 604.765625 235.226562 Z M 660.152344 140.765625 " clip-rule="nonzero"/></clipPath><clipPath id="2a1852645b"><path d="M 545 147 L 564 147 L 564 166 L 545 166 Z M 545 147 " clip-rule="nonzero"/></clipPath><clipPath id="7c5bbb1c28"><path d="M 567.796875 86.613281 L 660.316406 140.863281 L 604.929688 235.320312 L 512.410156 181.070312 Z M 567.796875 86.613281 " clip-rule="nonzero"/></clipPath><clipPath id="dc926f9a86"><path d="M 660.152344 140.765625 L 567.636719 86.519531 L 512.246094 180.976562 L 604.765625 235.226562 Z M 660.152344 140.765625 " clip-rule="nonzero"/></clipPath><clipPath id="630e0e0179"><path d="M 660.152344 140.765625 L 567.636719 86.519531 L 512.246094 180.976562 L 604.765625 235.226562 Z M 660.152344 140.765625 " clip-rule="nonzero"/></clipPath><clipPath id="17ebb6202b"><path d="M 571 142 L 623 142 L 623 203 L 571 203 Z M 571 142 " clip-rule="nonzero"/></clipPath><clipPath id="3bbf27e3c6"><path d="M 567.796875 86.613281 L 660.316406 140.863281 L 604.929688 235.320312 L 512.410156 181.070312 Z M 567.796875 86.613281 " clip-rule="nonzero"/></clipPath><clipPath id="6325e4f01b"><path d="M 660.152344 140.765625 L 567.636719 86.519531 L 512.246094 180.976562 L 604.765625 235.226562 Z M 660.152344 140.765625 " clip-rule="nonzero"/></clipPath><clipPath id="cf9fa56002"><path d="M 660.152344 140.765625 L 567.636719 86.519531 L 512.246094 180.976562 L 604.765625 235.226562 Z M 660.152344 140.765625 " clip-rule="nonzero"/></clipPath><clipPath id="fdfffd4871"><path d="M 587 203 L 596 203 L 596 212 L 587 212 Z M 587 203 " clip-rule="nonzero"/></clipPath><clipPath id="dc7f3328a2"><path d="M 567.796875 86.613281 L 660.316406 140.863281 L 604.929688 235.320312 L 512.410156 181.070312 Z M 567.796875 86.613281 " clip-rule="nonzero"/></clipPath><clipPath id="783330640a"><path d="M 660.152344 140.765625 L 567.636719 86.519531 L 512.246094 180.976562 L 604.765625 235.226562 Z M 660.152344 140.765625 " clip-rule="nonzero"/></clipPath><clipPath id="331b22de2b"><path d="M 660.152344 140.765625 L 567.636719 86.519531 L 512.246094 180.976562 L 604.765625 235.226562 Z M 660.152344 140.765625 " clip-rule="nonzero"/></clipPath><clipPath id="98fcc2ddb8"><path d="M 589 198 L 599 198 L 599 210 L 589 210 Z M 589 198 " clip-rule="nonzero"/></clipPath><clipPath id="2e54d1dfe8"><path d="M 567.796875 86.613281 L 660.316406 140.863281 L 604.929688 235.320312 L 512.410156 181.070312 Z M 567.796875 86.613281 " clip-rule="nonzero"/></clipPath><clipPath id="4a28d3a608"><path d="M 660.152344 140.765625 L 567.636719 86.519531 L 512.246094 180.976562 L 604.765625 235.226562 Z M 660.152344 140.765625 " clip-rule="nonzero"/></clipPath><clipPath id="34328955a4"><path d="M 660.152344 140.765625 L 567.636719 86.519531 L 512.246094 180.976562 L 604.765625 235.226562 Z M 660.152344 140.765625 " clip-rule="nonzero"/></clipPath><clipPath id="c2777fe0cb"><path d="M 613 140 L 620 140 L 620 145 L 613 145 Z M 613 140 " clip-rule="nonzero"/></clipPath><clipPath id="448fd52fb0"><path d="M 567.796875 86.613281 L 660.316406 140.863281 L 604.929688 235.320312 L 512.410156 181.070312 Z M 567.796875 86.613281 " clip-rule="nonzero"/></clipPath><clipPath id="88e4f499b0"><path d="M 660.152344 140.765625 L 567.636719 86.519531 L 512.246094 180.976562 L 604.765625 235.226562 Z M 660.152344 140.765625 " clip-rule="nonzero"/></clipPath><clipPath id="7ef8cb12c5"><path d="M 660.152344 140.765625 L 567.636719 86.519531 L 512.246094 180.976562 L 604.765625 235.226562 Z M 660.152344 140.765625 " clip-rule="nonzero"/></clipPath><clipPath id="7fbfb72b60"><path d="M 583 123 L 616 123 L 616 155 L 583 155 Z M 583 123 " clip-rule="nonzero"/></clipPath><clipPath id="a3e4e4b595"><path d="M 567.796875 86.613281 L 660.316406 140.863281 L 604.929688 235.320312 L 512.410156 181.070312 Z M 567.796875 86.613281 " clip-rule="nonzero"/></clipPath><clipPath id="db97e32a7b"><path d="M 660.152344 140.765625 L 567.636719 86.519531 L 512.246094 180.976562 L 604.765625 235.226562 Z M 660.152344 140.765625 " clip-rule="nonzero"/></clipPath><clipPath id="8f3ac6e2cb"><path d="M 660.152344 140.765625 L 567.636719 86.519531 L 512.246094 180.976562 L 604.765625 235.226562 Z M 660.152344 140.765625 " clip-rule="nonzero"/></clipPath><clipPath id="273b20b668"><path d="M 586 104 L 598 104 L 598 117 L 586 117 Z M 586 104 " clip-rule="nonzero"/></clipPath><clipPath id="3dd743dc3d"><path d="M 567.796875 86.613281 L 660.316406 140.863281 L 604.929688 235.320312 L 512.410156 181.070312 Z M 567.796875 86.613281 " clip-rule="nonzero"/></clipPath><clipPath id="1cbe7e6e22"><path d="M 660.152344 140.765625 L 567.636719 86.519531 L 512.246094 180.976562 L 604.765625 235.226562 Z M 660.152344 140.765625 " clip-rule="nonzero"/></clipPath><clipPath id="be821a8f84"><path d="M 660.152344 140.765625 L 567.636719 86.519531 L 512.246094 180.976562 L 604.765625 235.226562 Z M 660.152344 140.765625 " clip-rule="nonzero"/></clipPath><clipPath id="df0509ffc6"><path d="M 592 102 L 596 102 L 596 106 L 592 106 Z M 592 102 " clip-rule="nonzero"/></clipPath><clipPath id="b30af6ec1c"><path d="M 567.796875 86.613281 L 660.316406 140.863281 L 604.929688 235.320312 L 512.410156 181.070312 Z M 567.796875 86.613281 " clip-rule="nonzero"/></clipPath><clipPath id="692a6e387b"><path d="M 660.152344 140.765625 L 567.636719 86.519531 L 512.246094 180.976562 L 604.765625 235.226562 Z M 660.152344 140.765625 " clip-rule="nonzero"/></clipPath><clipPath id="1753a7903d"><path d="M 660.152344 140.765625 L 567.636719 86.519531 L 512.246094 180.976562 L 604.765625 235.226562 Z M 660.152344 140.765625 " clip-rule="nonzero"/></clipPath><clipPath id="b196a4ac46"><path d="M 564 104 L 597 104 L 597 126 L 564 126 Z M 564 104 " clip-rule="nonzero"/></clipPath><clipPath id="4aca39054a"><path d="M 567.796875 86.613281 L 660.316406 140.863281 L 604.929688 235.320312 L 512.410156 181.070312 Z M 567.796875 86.613281 " clip-rule="nonzero"/></clipPath><clipPath id="613093148e"><path d="M 660.152344 140.765625 L 567.636719 86.519531 L 512.246094 180.976562 L 604.765625 235.226562 Z M 660.152344 140.765625 " clip-rule="nonzero"/></clipPath><clipPath id="7ef050093a"><path d="M 660.152344 140.765625 L 567.636719 86.519531 L 512.246094 180.976562 L 604.765625 235.226562 Z M 660.152344 140.765625 " clip-rule="nonzero"/></clipPath><clipPath id="185bbaf70b"><path d="M 550 147 L 614 147 L 614 202 L 550 202 Z M 550 147 " clip-rule="nonzero"/></clipPath><clipPath id="e6cbc3ed35"><path d="M 567.796875 86.613281 L 660.316406 140.863281 L 604.929688 235.320312 L 512.410156 181.070312 Z M 567.796875 86.613281 " clip-rule="nonzero"/></clipPath><clipPath id="f1f8a2fbd2"><path d="M 660.152344 140.765625 L 567.636719 86.519531 L 512.246094 180.976562 L 604.765625 235.226562 Z M 660.152344 140.765625 " clip-rule="nonzero"/></clipPath><clipPath id="9059e14de8"><path d="M 660.152344 140.765625 L 567.636719 86.519531 L 512.246094 180.976562 L 604.765625 235.226562 Z M 660.152344 140.765625 " clip-rule="nonzero"/></clipPath><clipPath id="b261f74cbb"><path d="M 557 139 L 575 139 L 575 161 L 557 161 Z M 557 139 " clip-rule="nonzero"/></clipPath><clipPath id="1f74c6f30a"><path d="M 567.796875 86.613281 L 660.316406 140.863281 L 604.929688 235.320312 L 512.410156 181.070312 Z M 567.796875 86.613281 " clip-rule="nonzero"/></clipPath><clipPath id="2e11d269cd"><path d="M 660.152344 140.765625 L 567.636719 86.519531 L 512.246094 180.976562 L 604.765625 235.226562 Z M 660.152344 140.765625 " clip-rule="nonzero"/></clipPath><clipPath id="d95972b320"><path d="M 660.152344 140.765625 L 567.636719 86.519531 L 512.246094 180.976562 L 604.765625 235.226562 Z M 660.152344 140.765625 " clip-rule="nonzero"/></clipPath><clipPath id="4dc33f2aa5"><path d="M 535 125 L 597 125 L 597 224 L 535 224 Z M 535 125 " clip-rule="nonzero"/></clipPath><clipPath id="7374cc3072"><path d="M 567.796875 86.613281 L 660.316406 140.863281 L 604.929688 235.320312 L 512.410156 181.070312 Z M 567.796875 86.613281 " clip-rule="nonzero"/></clipPath><clipPath id="80b1199fec"><path d="M 660.152344 140.765625 L 567.636719 86.519531 L 512.246094 180.976562 L 604.765625 235.226562 Z M 660.152344 140.765625 " clip-rule="nonzero"/></clipPath><clipPath id="0a2f251109"><path d="M 660.152344 140.765625 L 567.636719 86.519531 L 512.246094 180.976562 L 604.765625 235.226562 Z M 660.152344 140.765625 " clip-rule="nonzero"/></clipPath><clipPath id="ea0e1553a3"><path d="M 627.101562 164.246094 L 552.90625 120.738281 L 516.148438 183.425781 L 590.34375 226.929688 Z M 627.101562 164.246094 " clip-rule="nonzero"/></clipPath><clipPath id="43eb376fbb"><path d="M 627.101562 164.246094 L 552.90625 120.738281 L 516.226562 183.292969 L 590.421875 226.800781 Z M 627.101562 164.246094 " clip-rule="nonzero"/></clipPath><clipPath id="4572c9fb68"><path d="M 568 143 L 607 143 L 607 202 L 568 202 Z M 568 143 " clip-rule="nonzero"/></clipPath><clipPath id="c4131f00e6"><path d="M 567.796875 86.613281 L 660.316406 140.863281 L 604.929688 235.320312 L 512.410156 181.070312 Z M 567.796875 86.613281 " clip-rule="nonzero"/></clipPath><clipPath id="a37a86ecd1"><path d="M 660.152344 140.765625 L 567.636719 86.519531 L 512.246094 180.976562 L 604.765625 235.226562 Z M 660.152344 140.765625 " clip-rule="nonzero"/></clipPath><clipPath id="0f0c861c77"><path d="M 660.152344 140.765625 L 567.636719 86.519531 L 512.246094 180.976562 L 604.765625 235.226562 Z M 660.152344 140.765625 " clip-rule="nonzero"/></clipPath><clipPath id="69c770746a"><path d="M 560 113 L 595 113 L 595 146 L 560 146 Z M 560 113 " clip-rule="nonzero"/></clipPath><clipPath id="00db305fc3"><path d="M 567.796875 86.613281 L 660.316406 140.863281 L 604.929688 235.320312 L 512.410156 181.070312 Z M 567.796875 86.613281 " clip-rule="nonzero"/></clipPath><clipPath id="df8cb22c14"><path d="M 660.152344 140.765625 L 567.636719 86.519531 L 512.246094 180.976562 L 604.765625 235.226562 Z M 660.152344 140.765625 " clip-rule="nonzero"/></clipPath><clipPath id="8745338bdc"><path d="M 660.152344 140.765625 L 567.636719 86.519531 L 512.246094 180.976562 L 604.765625 235.226562 Z M 660.152344 140.765625 " clip-rule="nonzero"/></clipPath><clipPath id="19e6591614"><path d="M 586 115 L 591 115 L 591 121 L 586 121 Z M 586 115 " clip-rule="nonzero"/></clipPath><clipPath id="9390b31a47"><path d="M 567.796875 86.613281 L 660.316406 140.863281 L 604.929688 235.320312 L 512.410156 181.070312 Z M 567.796875 86.613281 " clip-rule="nonzero"/></clipPath><clipPath id="d90c623462"><path d="M 660.152344 140.765625 L 567.636719 86.519531 L 512.246094 180.976562 L 604.765625 235.226562 Z M 660.152344 140.765625 " clip-rule="nonzero"/></clipPath><clipPath id="09a5a2629d"><path d="M 660.152344 140.765625 L 567.636719 86.519531 L 512.246094 180.976562 L 604.765625 235.226562 Z M 660.152344 140.765625 " clip-rule="nonzero"/></clipPath><clipPath id="720c974605"><path d="M 587 115 L 591 115 L 591 119 L 587 119 Z M 587 115 " clip-rule="nonzero"/></clipPath><clipPath id="89bc36f763"><path d="M 567.796875 86.613281 L 660.316406 140.863281 L 604.929688 235.320312 L 512.410156 181.070312 Z M 567.796875 86.613281 " clip-rule="nonzero"/></clipPath><clipPath id="e974ce0b56"><path d="M 660.152344 140.765625 L 567.636719 86.519531 L 512.246094 180.976562 L 604.765625 235.226562 Z M 660.152344 140.765625 " clip-rule="nonzero"/></clipPath><clipPath id="e5a2d13ba7"><path d="M 660.152344 140.765625 L 567.636719 86.519531 L 512.246094 180.976562 L 604.765625 235.226562 Z M 660.152344 140.765625 " clip-rule="nonzero"/></clipPath><clipPath id="579280f907"><path d="M 587 110 L 595 110 L 595 118 L 587 118 Z M 587 110 " clip-rule="nonzero"/></clipPath><clipPath id="215f1cdebc"><path d="M 567.796875 86.613281 L 660.316406 140.863281 L 604.929688 235.320312 L 512.410156 181.070312 Z M 567.796875 86.613281 " clip-rule="nonzero"/></clipPath><clipPath id="8e8148adeb"><path d="M 660.152344 140.765625 L 567.636719 86.519531 L 512.246094 180.976562 L 604.765625 235.226562 Z M 660.152344 140.765625 " clip-rule="nonzero"/></clipPath><clipPath id="be3a8b859e"><path d="M 660.152344 140.765625 L 567.636719 86.519531 L 512.246094 180.976562 L 604.765625 235.226562 Z M 660.152344 140.765625 " clip-rule="nonzero"/></clipPath><clipPath id="0ca1826ea5"><path d="M 569 201 L 577 201 L 577 210 L 569 210 Z M 569 201 " clip-rule="nonzero"/></clipPath><clipPath id="16597c60ac"><path d="M 567.796875 86.613281 L 660.316406 140.863281 L 604.929688 235.320312 L 512.410156 181.070312 Z M 567.796875 86.613281 " clip-rule="nonzero"/></clipPath><clipPath id="e3dd8c710c"><path d="M 660.152344 140.765625 L 567.636719 86.519531 L 512.246094 180.976562 L 604.765625 235.226562 Z M 660.152344 140.765625 " clip-rule="nonzero"/></clipPath><clipPath id="a00df01ce3"><path d="M 660.152344 140.765625 L 567.636719 86.519531 L 512.246094 180.976562 L 604.765625 235.226562 Z M 660.152344 140.765625 " clip-rule="nonzero"/></clipPath><clipPath id="7811a1af9d"><path d="M 570 196 L 581 196 L 581 209 L 570 209 Z M 570 196 " clip-rule="nonzero"/></clipPath><clipPath id="f4bc628cbe"><path d="M 567.796875 86.613281 L 660.316406 140.863281 L 604.929688 235.320312 L 512.410156 181.070312 Z M 567.796875 86.613281 " clip-rule="nonzero"/></clipPath><clipPath id="264b93c4de"><path d="M 660.152344 140.765625 L 567.636719 86.519531 L 512.246094 180.976562 L 604.765625 235.226562 Z M 660.152344 140.765625 " clip-rule="nonzero"/></clipPath><clipPath id="4bd2df2f9a"><path d="M 660.152344 140.765625 L 567.636719 86.519531 L 512.246094 180.976562 L 604.765625 235.226562 Z M 660.152344 140.765625 " clip-rule="nonzero"/></clipPath><clipPath id="72aba6c32b"><path d="M 564 104 L 594 104 L 594 122 L 564 122 Z M 564 104 " clip-rule="nonzero"/></clipPath><clipPath id="81716b9cb0"><path d="M 567.796875 86.613281 L 660.316406 140.863281 L 604.929688 235.320312 L 512.410156 181.070312 Z M 567.796875 86.613281 " clip-rule="nonzero"/></clipPath><clipPath id="82467ba64a"><path d="M 660.152344 140.765625 L 567.636719 86.519531 L 512.246094 180.976562 L 604.765625 235.226562 Z M 660.152344 140.765625 " clip-rule="nonzero"/></clipPath><clipPath id="7b08e66955"><path d="M 660.152344 140.765625 L 567.636719 86.519531 L 512.246094 180.976562 L 604.765625 235.226562 Z M 660.152344 140.765625 " clip-rule="nonzero"/></clipPath><clipPath id="a75b188698"><path d="M 589 142 L 620 142 L 620 206 L 589 206 Z M 589 142 " clip-rule="nonzero"/></clipPath><clipPath id="e03d95b35d"><path d="M 567.796875 86.613281 L 660.316406 140.863281 L 604.929688 235.320312 L 512.410156 181.070312 Z M 567.796875 86.613281 " clip-rule="nonzero"/></clipPath><clipPath id="ec1e294a8e"><path d="M 660.152344 140.765625 L 567.636719 86.519531 L 512.246094 180.976562 L 604.765625 235.226562 Z M 660.152344 140.765625 " clip-rule="nonzero"/></clipPath><clipPath id="509c20eab8"><path d="M 660.152344 140.765625 L 567.636719 86.519531 L 512.246094 180.976562 L 604.765625 235.226562 Z M 660.152344 140.765625 " clip-rule="nonzero"/></clipPath><clipPath id="8917889ff9"><path d="M 587 140 L 594 140 L 594 145 L 587 145 Z M 587 140 " clip-rule="nonzero"/></clipPath><clipPath id="3fd1a7eb08"><path d="M 567.796875 86.613281 L 660.316406 140.863281 L 604.929688 235.320312 L 512.410156 181.070312 Z M 567.796875 86.613281 " clip-rule="nonzero"/></clipPath><clipPath id="6084159542"><path d="M 660.152344 140.765625 L 567.636719 86.519531 L 512.246094 180.976562 L 604.765625 235.226562 Z M 660.152344 140.765625 " clip-rule="nonzero"/></clipPath><clipPath id="f9daa077f9"><path d="M 660.152344 140.765625 L 567.636719 86.519531 L 512.246094 180.976562 L 604.765625 235.226562 Z M 660.152344 140.765625 " clip-rule="nonzero"/></clipPath><clipPath id="95886ebccf"><path d="M 557 114 L 590 114 L 590 148 L 557 148 Z M 557 114 " clip-rule="nonzero"/></clipPath><clipPath id="086db23e5f"><path d="M 567.796875 86.613281 L 660.316406 140.863281 L 604.929688 235.320312 L 512.410156 181.070312 Z M 567.796875 86.613281 " clip-rule="nonzero"/></clipPath><clipPath id="31afbf646c"><path d="M 660.152344 140.765625 L 567.636719 86.519531 L 512.246094 180.976562 L 604.765625 235.226562 Z M 660.152344 140.765625 " clip-rule="nonzero"/></clipPath><clipPath id="78f2571684"><path d="M 660.152344 140.765625 L 567.636719 86.519531 L 512.246094 180.976562 L 604.765625 235.226562 Z M 660.152344 140.765625 " clip-rule="nonzero"/></clipPath><clipPath id="eb36778506"><path d="M 561 93 L 594 93 L 594 123 L 561 123 Z M 561 93 " clip-rule="nonzero"/></clipPath><clipPath id="74b92ba11f"><path d="M 567.796875 86.613281 L 660.316406 140.863281 L 604.929688 235.320312 L 512.410156 181.070312 Z M 567.796875 86.613281 " clip-rule="nonzero"/></clipPath><clipPath id="10b7f6347d"><path d="M 660.152344 140.765625 L 567.636719 86.519531 L 512.246094 180.976562 L 604.765625 235.226562 Z M 660.152344 140.765625 " clip-rule="nonzero"/></clipPath><clipPath id="3d80cc0ed4"><path d="M 660.152344 140.765625 L 567.636719 86.519531 L 512.246094 180.976562 L 604.765625 235.226562 Z M 660.152344 140.765625 " clip-rule="nonzero"/></clipPath><clipPath id="97b265e9e8"><path d="M 598.136719 112.847656 L 563.882812 92.761719 L 557.246094 104.078125 L 591.503906 124.164062 Z M 598.136719 112.847656 " clip-rule="nonzero"/></clipPath><clipPath id="43a98a9b69"><path d="M 598.136719 112.847656 L 563.976562 92.816406 L 557.339844 104.132812 L 591.503906 124.164062 Z M 598.136719 112.847656 " clip-rule="nonzero"/></clipPath></defs><g clip-path="url(#2f88fc0f4e)"><path fill="#ffffff" d="M 0 0.210938 L 1024.5 0.210938 L 1024.5 864.210938 L 0 864.210938 Z M 0 0.210938 " fill-opacity="1" fill-rule="nonzero"/><path fill="#ffffff" d="M 0 0.210938 L 1024.5 0.210938 L 1024.5 864.210938 L 0 864.210938 Z M 0 0.210938 " fill-opacity="1" fill-rule="nonzero"/></g><g clip-path="url(#2a89be4a44)"><g clip-path="url(#1259aeeb0e)"><g clip-path="url(#7144ce6f2f)"><g clip-path="url(#5c2e09d69b)"><g clip-path="url(#f2de9e75d4)"><g clip-path="url(#a42be7087d)"><path fill="#fcb408" d="M 728.351562 646.066406 C 692.378906 624.929688 680.332031 578.667969 701.441406 542.734375 C 722.550781 506.800781 768.828125 494.804688 804.800781 515.9375 C 840.773438 537.074219 852.824219 583.335938 831.710938 619.269531 C 810.601562 655.203125 764.324219 667.199219 728.351562 646.066406 " fill-opacity="1" fill-rule="evenodd"/></g></g></g></g></g></g><g clip-path="url(#2a568aa213)"><g clip-path="url(#8bca781d1d)"><g clip-path="url(#4b97034baa)"><g clip-path="url(#ab758bc583)"><path fill="#fdd833" d="M 801 522.414062 C 769.046875 503.640625 727.949219 514.296875 709.199219 546.210938 C 690.449219 578.125 701.148438 619.214844 733.101562 637.984375 C 765.046875 656.753906 806.148438 646.097656 824.898438 614.183594 C 843.648438 582.269531 832.945312 541.183594 801 522.414062 " fill-opacity="1" fill-rule="evenodd"/></g></g></g></g><g clip-path="url(#8fcd0b1a2d)"><g clip-path="url(#be7870f3fb)"><g clip-path="url(#46c5943d68)"><g clip-path="url(#52a370afa7)"><path fill="#f8a008" d="M 758.742188 577.558594 C 754.457031 579.996094 750.195312 581.96875 747.414062 581.820312 C 743.042969 581.582031 741.648438 579.457031 738.859375 576.730469 C 736.960938 573.21875 736.851562 569.121094 738.105469 565.433594 Z M 793.949219 598.242188 C 792.304688 599.972656 790.25 601.332031 787.875 602.105469 C 784.589844 603.167969 781.0625 602.957031 778.074219 601.199219 C 775.238281 599.535156 771.417969 600.777344 769.539062 603.972656 C 767.660156 607.171875 768.433594 611.117188 771.269531 612.78125 C 777.089844 616.203125 783.957031 616.625 790.320312 614.554688 C 795.972656 612.714844 800.847656 609.066406 804.398438 604.378906 L 812.742188 609.28125 C 814.378906 610.242188 816.480469 609.699219 817.441406 608.066406 C 818.402344 606.433594 817.855469 604.328125 816.21875 603.367188 L 807.914062 598.488281 C 809.695312 594.585938 810.667969 590.296875 810.625 585.910156 C 810.507812 573.332031 802.058594 563.640625 790.113281 562.996094 C 779.855469 562.4375 775.800781 567.4375 770.640625 570.246094 C 769.234375 571.066406 767.417969 572.230469 765.398438 573.511719 L 741.660156 559.5625 C 743.308594 557.839844 745.363281 556.476562 747.738281 555.703125 C 751.019531 554.636719 754.550781 554.851562 757.535156 556.605469 C 760.371094 558.273438 764.195312 557.027344 766.074219 553.832031 C 767.953125 550.632812 767.175781 546.691406 764.339844 545.023438 C 758.523438 541.605469 751.660156 541.183594 745.292969 543.253906 C 739.636719 545.089844 734.765625 548.742188 731.210938 553.425781 L 722.871094 548.523438 C 721.234375 547.566406 719.132812 548.113281 718.171875 549.742188 C 717.210938 551.378906 717.761719 553.480469 719.394531 554.441406 L 727.695312 559.316406 C 725.917969 563.222656 724.945312 567.511719 724.988281 571.894531 C 725.101562 584.476562 733.554688 594.167969 745.5 594.8125 C 750.652344 595.089844 762.332031 589.433594 770.710938 584.589844 Z M 778.226562 579.839844 C 781.675781 577.339844 783.839844 575.753906 788.199219 575.988281 C 792.570312 576.222656 793.96875 578.351562 796.75 581.074219 C 798.652344 584.585938 798.765625 588.6875 797.503906 592.371094 L 777.289062 580.496094 C 777.628906 580.265625 777.945312 580.046875 778.226562 579.839844 " fill-opacity="1" fill-rule="evenodd"/></g></g></g></g><g clip-path="url(#a034e7773f)"><g clip-path="url(#c333dc6a9d)"><g clip-path="url(#2b82698218)"><g clip-path="url(#c95371e622)"><path fill="#f46249" d="M 429.945312 565.582031 L 589.234375 294.457031 L 543.8125 237.222656 L 357.839844 553.769531 L 429.945312 565.582031 " fill-opacity="1" fill-rule="nonzero"/></g></g></g></g><g clip-path="url(#1cd4cd6de3)"><g clip-path="url(#243d48c28c)"><g clip-path="url(#49670e3527)"><g clip-path="url(#1a764d481f)"><g clip-path="url(#7d9925cdf1)"><g clip-path="url(#05b99b0eb6)"><path fill="#6da8f4" d="M 543.8125 237.222656 L 498.386719 179.992188 L 285.734375 541.957031 L 357.839844 553.769531 L 543.8125 237.222656 " fill-opacity="1" fill-rule="nonzero"/></g></g></g></g></g></g><g clip-path="url(#618a2989e9)"><g clip-path="url(#de8e3e16ac)"><g clip-path="url(#94f9cd1bda)"><g clip-path="url(#4f63ca0e30)"><path fill="#904cd5" d="M 502.050781 577.394531 L 634.652344 351.691406 L 589.234375 294.457031 L 429.945312 565.582031 L 502.050781 577.394531 " fill-opacity="1" fill-rule="nonzero"/></g></g></g></g><g clip-path="url(#045b993b19)"><g clip-path="url(#86cb34d741)"><g clip-path="url(#afdf80b10c)"><g clip-path="url(#ecc7856e48)"><path fill="#fdd834" d="M 574.15625 589.207031 L 680.074219 408.921875 L 634.652344 351.691406 L 502.050781 577.394531 L 574.15625 589.207031 " fill-opacity="1" fill-rule="nonzero"/></g></g></g></g><g clip-path="url(#ff66a32cc6)"><g clip-path="url(#795739b2d0)"><g clip-path="url(#f9bd28fb25)"><g clip-path="url(#a9e51c3a04)"><path fill="#f553c6" d="M 574.15625 589.207031 L 646.261719 601.023438 L 725.496094 466.15625 L 680.074219 408.921875 L 574.15625 589.207031 " fill-opacity="1" fill-rule="nonzero"/></g></g></g></g><g clip-path="url(#06e4fd65fe)"><g clip-path="url(#e5e10f4cfc)"><g clip-path="url(#60b59ba4a7)"><g clip-path="url(#74636b977c)"><path fill="#6594e7" d="M 171.652344 275.136719 C 165.96875 284.800781 160.289062 294.464844 154.609375 304.128906 C 146.144531 318.527344 151.015625 337.238281 165.425781 345.710938 L 195.171875 363.195312 L 242.992188 281.847656 L 213.242188 264.363281 C 198.832031 255.890625 180.113281 260.738281 171.652344 275.136719 Z M 111.542969 265.269531 C 113.289062 262.296875 115.003906 259.382812 116.753906 256.414062 C 124.335938 243.511719 140.949219 239.207031 153.863281 246.796875 C 166.777344 254.390625 171.097656 271 163.515625 283.902344 C 161.769531 286.875 160.058594 289.789062 158.308594 292.757812 C 150.726562 305.660156 134.109375 309.964844 121.195312 302.371094 C 108.28125 294.78125 103.960938 278.171875 111.542969 265.269531 " fill-opacity="1" fill-rule="evenodd"/></g></g></g></g><g clip-path="url(#eea72a1ed8)"><g clip-path="url(#df9ff95f2e)"><g clip-path="url(#41be13761a)"><g clip-path="url(#14463690ee)"><path fill="#6da8f4" d="M 154.609375 304.128906 C 146.144531 318.527344 151.015625 337.238281 165.425781 345.710938 L 195.171875 363.195312 L 237.78125 290.707031 L 208.035156 273.222656 C 193.625 264.75 174.910156 269.597656 166.445312 283.996094 Z M 111.542969 265.269531 C 119.125 252.371094 135.742188 248.066406 148.65625 255.660156 C 161.570312 263.25 165.890625 279.859375 158.308594 292.757812 C 150.726562 305.660156 134.109375 309.964844 121.195312 302.371094 C 108.28125 294.78125 103.960938 278.171875 111.542969 265.269531 " fill-opacity="1" fill-rule="evenodd"/></g></g></g></g><g clip-path="url(#116861679f)"><g clip-path="url(#6664e57c43)"><g clip-path="url(#a00597a281)"><g clip-path="url(#f5029ef61d)"><path fill="#f7f7fb" d="M 156.691406 300.589844 L 163.1875 298.078125 L 191.566406 321.667969 L 203.265625 319.183594 L 199.742188 307.753906 L 165.332031 294.433594 L 164.390625 287.488281 L 160.429688 294.226562 L 156.691406 300.589844 " fill-opacity="1" fill-rule="evenodd"/></g></g></g></g><g clip-path="url(#0d6affc01c)"><g clip-path="url(#e959daa437)"><g clip-path="url(#becaa3255a)"><g clip-path="url(#3c96fe55c0)"><path fill="#e52ea7" d="M 225.277344 183.90625 C 219.59375 193.570312 213.914062 203.234375 208.234375 212.902344 C 199.769531 227.296875 204.640625 246.007812 219.050781 254.480469 L 248.796875 271.964844 L 296.617188 190.617188 L 266.867188 173.132812 C 252.457031 164.660156 233.738281 169.507812 225.277344 183.90625 Z M 165.167969 174.039062 C 166.914062 171.066406 168.628906 168.15625 170.375 165.179688 C 177.960938 152.28125 194.574219 147.976562 207.488281 155.570312 C 220.402344 163.160156 224.722656 179.769531 217.140625 192.667969 C 215.394531 195.644531 213.683594 198.554688 211.933594 201.527344 C 204.351562 214.429688 187.734375 218.734375 174.820312 211.144531 C 161.90625 203.550781 157.585938 186.941406 165.167969 174.039062 " fill-opacity="1" fill-rule="evenodd"/></g></g></g></g><g clip-path="url(#b9c24876fc)"><g clip-path="url(#730a9051dc)"><g clip-path="url(#011fcb7662)"><g clip-path="url(#4720bc7f69)"><path fill="#f553c6" d="M 208.234375 212.902344 C 199.769531 227.296875 204.640625 246.007812 219.050781 254.480469 L 248.800781 271.964844 L 291.40625 199.476562 L 261.660156 181.992188 C 247.246094 173.519531 228.53125 178.367188 220.070312 192.765625 Z M 165.167969 174.039062 C 172.75 161.140625 189.367188 156.835938 202.28125 164.429688 C 215.191406 172.015625 219.519531 188.628906 211.933594 201.53125 C 204.351562 214.429688 187.734375 218.734375 174.820312 211.144531 C 161.90625 203.550781 157.585938 186.941406 165.167969 174.039062 " fill-opacity="1" fill-rule="evenodd"/></g></g></g></g><g clip-path="url(#c1f435c479)"><g clip-path="url(#936b9cc4c4)"><g clip-path="url(#cb5b0afabe)"><g clip-path="url(#6ff860ace1)"><path fill="#f7f7fb" d="M 210.316406 209.359375 L 216.8125 206.851562 L 245.1875 230.4375 L 256.886719 227.953125 L 253.367188 216.523438 L 218.957031 203.203125 L 218.015625 196.257812 L 214.054688 202.992188 L 210.316406 209.359375 " fill-opacity="1" fill-rule="evenodd"/></g></g></g></g><g clip-path="url(#addf51518c)"><g clip-path="url(#0fb9150568)"><g clip-path="url(#46cced3939)"><g clip-path="url(#827cca2166)"><path fill="#fd9e20" d="M 269.886719 392.414062 C 264.207031 402.082031 258.527344 411.746094 252.84375 421.410156 C 244.382812 435.808594 249.25 454.519531 263.664062 462.988281 L 293.410156 480.476562 L 341.226562 399.128906 L 311.480469 381.644531 C 297.066406 373.171875 278.351562 378.019531 269.886719 392.414062 Z M 209.78125 382.550781 C 211.527344 379.578125 213.242188 376.664062 214.988281 373.691406 C 222.570312 360.792969 239.183594 356.488281 252.097656 364.078125 C 265.011719 371.667969 269.335938 388.28125 261.753906 401.179688 C 260.003906 404.152344 258.292969 407.066406 256.546875 410.039062 C 248.960938 422.941406 232.347656 427.242188 219.433594 419.652344 C 206.519531 412.0625 202.195312 395.449219 209.78125 382.550781 " fill-opacity="1" fill-rule="evenodd"/></g></g></g></g><g clip-path="url(#a5ad81f82b)"><g clip-path="url(#8063c5c787)"><g clip-path="url(#a1a192b974)"><g clip-path="url(#b76fee77be)"><path fill="#fdd833" d="M 252.84375 421.410156 C 244.382812 435.808594 249.25 454.519531 263.664062 462.988281 L 293.410156 480.476562 L 336.015625 407.988281 L 306.273438 390.503906 C 291.859375 382.03125 273.144531 386.878906 264.679688 401.273438 Z M 209.78125 382.550781 C 217.363281 369.652344 233.976562 365.347656 246.894531 372.9375 C 259.804688 380.527344 264.128906 397.140625 256.546875 410.039062 C 248.960938 422.941406 232.347656 427.242188 219.433594 419.652344 C 206.519531 412.0625 202.195312 395.449219 209.78125 382.550781 " fill-opacity="1" fill-rule="evenodd"/></g></g></g></g><g clip-path="url(#88eae5670c)"><g clip-path="url(#9b4b549a0d)"><g clip-path="url(#d641dbaeac)"><g clip-path="url(#f47dee315d)"><path fill="#f7f7fb" d="M 254.925781 417.867188 L 261.425781 415.359375 L 289.800781 438.949219 L 301.5 436.464844 L 297.976562 425.035156 L 263.566406 411.714844 L 262.628906 404.765625 L 258.667969 411.503906 L 254.925781 417.867188 " fill-opacity="1" fill-rule="evenodd"/></g></g></g></g><g clip-path="url(#3b8294e2c6)"><g clip-path="url(#f860b4596e)"><g clip-path="url(#f9e8f84c64)"><g clip-path="url(#31da1dbbfa)"><path fill="#e52ea7" d="M 323.511719 301.1875 C 317.832031 310.851562 312.148438 320.515625 306.46875 330.179688 C 298.007812 344.578125 302.875 363.289062 317.289062 371.761719 L 347.035156 389.246094 L 394.847656 307.898438 L 365.101562 290.414062 C 350.691406 281.941406 331.976562 286.789062 323.511719 301.1875 Z M 263.402344 291.320312 C 265.148438 288.347656 266.863281 285.433594 268.609375 282.460938 C 276.191406 269.5625 292.808594 265.257812 305.722656 272.847656 C 318.636719 280.441406 322.960938 297.050781 315.378906 309.953125 C 313.628906 312.921875 311.917969 315.835938 310.171875 318.808594 C 302.585938 331.710938 285.96875 336.011719 273.058594 328.421875 C 260.144531 320.832031 255.820312 304.222656 263.402344 291.320312 " fill-opacity="1" fill-rule="evenodd"/></g></g></g></g><g clip-path="url(#a0b7107a28)"><g clip-path="url(#3213e041c1)"><g clip-path="url(#dd4137da8e)"><g clip-path="url(#b52a9be311)"><path fill="#f553c6" d="M 306.46875 330.179688 C 298.007812 344.578125 302.875 363.289062 317.289062 371.761719 L 347.035156 389.246094 L 389.640625 316.753906 L 359.894531 299.273438 C 345.484375 290.800781 326.765625 295.648438 318.304688 310.046875 Z M 263.402344 291.320312 C 270.984375 278.417969 287.601562 274.117188 300.515625 281.707031 C 313.429688 289.296875 317.75 305.910156 310.171875 318.808594 C 302.585938 331.710938 285.96875 336.011719 273.058594 328.421875 C 260.144531 320.832031 255.820312 304.222656 263.402344 291.320312 " fill-opacity="1" fill-rule="evenodd"/></g></g></g></g><g clip-path="url(#eb29f74f73)"><g clip-path="url(#0ff3b3dd28)"><g clip-path="url(#7a1d7dfef6)"><g clip-path="url(#84ad79126e)"><path fill="#f7f7fb" d="M 308.550781 326.636719 L 315.050781 324.128906 L 343.425781 347.714844 L 355.125 345.234375 L 351.601562 333.800781 L 317.195312 320.484375 L 316.25 313.535156 L 312.292969 320.273438 L 308.550781 326.636719 " fill-opacity="1" fill-rule="evenodd"/></g></g></g></g><g clip-path="url(#6720e584d6)"><g clip-path="url(#c658850dd0)"><g clip-path="url(#d8a1d69eec)"><g clip-path="url(#fe87929cdb)"><path fill="#753eac" d="M 377.136719 209.957031 C 371.457031 219.621094 365.777344 229.285156 360.09375 238.949219 C 351.632812 253.347656 356.5 272.058594 370.914062 280.53125 L 400.660156 298.015625 L 448.476562 216.667969 L 418.730469 199.179688 C 404.316406 190.710938 385.601562 195.558594 377.136719 209.957031 Z M 317.027344 200.089844 C 318.777344 197.117188 320.488281 194.203125 322.238281 191.230469 C 329.816406 178.332031 346.4375 174.027344 359.351562 181.617188 C 372.261719 189.210938 376.582031 205.820312 369.003906 218.71875 C 367.257812 221.691406 365.539062 224.605469 363.792969 227.578125 C 356.210938 240.476562 339.597656 244.785156 326.683594 237.191406 C 313.769531 229.601562 309.445312 212.988281 317.027344 200.089844 " fill-opacity="1" fill-rule="evenodd"/></g></g></g></g><g clip-path="url(#713d923f3b)"><g clip-path="url(#3fa4c1e487)"><g clip-path="url(#1607d0d99f)"><g clip-path="url(#d7e6fbeb15)"><path fill="#904cd5" d="M 360.09375 238.949219 C 351.632812 253.347656 356.5 272.058594 370.914062 280.53125 L 400.660156 298.015625 L 443.269531 225.527344 L 413.519531 208.042969 C 399.105469 199.566406 380.390625 204.417969 371.929688 218.8125 Z M 317.027344 200.089844 C 324.613281 187.191406 341.226562 182.886719 354.140625 190.476562 C 367.054688 198.070312 371.375 214.679688 363.792969 227.578125 C 356.210938 240.476562 339.597656 244.785156 326.683594 237.191406 C 313.769531 229.601562 309.445312 212.988281 317.027344 200.089844 " fill-opacity="1" fill-rule="evenodd"/></g></g></g></g><g clip-path="url(#901384b93c)"><g clip-path="url(#49bd1b504d)"><g clip-path="url(#0b203770e3)"><g clip-path="url(#e4a560b4f8)"><path fill="#f7f7fb" d="M 362.175781 235.40625 L 368.671875 232.902344 L 397.046875 256.488281 L 408.75 254.003906 L 405.226562 242.570312 L 370.816406 229.253906 L 369.878906 222.308594 L 365.917969 229.046875 L 362.175781 235.40625 " fill-opacity="1" fill-rule="evenodd"/></g></g></g></g><g clip-path="url(#c7ac7670e2)"><g clip-path="url(#a77273a404)"><g clip-path="url(#600037dd44)"><g clip-path="url(#9a71295af5)"><path fill="#3b2b5b" d="M 550.90625 160.03125 Z M 602.859375 223.71875 C 603.078125 223.847656 603.28125 223.945312 603.46875 224.015625 C 605.375 224.71875 607.324219 224.621094 609.101562 223.730469 C 612.070312 222.246094 614.449219 218.671875 615.984375 213.398438 C 618.597656 204.425781 610.238281 196.957031 609.878906 196.644531 C 609.539062 196.347656 609.023438 196.378906 608.726562 196.71875 C 608.429688 197.054688 608.464844 197.570312 608.800781 197.867188 C 608.882812 197.9375 616.734375 204.96875 614.414062 212.933594 C 613.007812 217.765625 610.914062 220.992188 608.363281 222.273438 C 606.980469 222.964844 605.523438 223.035156 604.03125 222.484375 C 600.945312 221.351562 589.777344 207.125 583.78125 199.484375 C 581.476562 196.554688 579.660156 194.238281 578.691406 193.125 C 578.066406 192.402344 576.882812 191.070312 575.339844 189.332031 C 569.445312 182.6875 551.554688 162.53125 550.914062 160.0625 C 551.101562 159.09375 556.253906 157.039062 561.800781 155.738281 C 562.242188 155.632812 562.511719 155.195312 562.40625 154.753906 C 562.300781 154.316406 561.859375 154.042969 561.421875 154.148438 C 557.769531 155.007812 549.269531 157.300781 549.277344 160.082031 C 549.277344 161.789062 556.011719 170.011719 574.117188 190.410156 C 575.652344 192.140625 576.835938 193.472656 577.457031 194.191406 C 578.398438 195.273438 580.207031 197.574219 582.492188 200.488281 C 591.164062 211.53125 599.238281 221.59375 602.859375 223.71875 " fill-opacity="1" fill-rule="nonzero"/></g></g></g></g><g clip-path="url(#61e80fb6c3)"><g clip-path="url(#f8072c8173)"><g clip-path="url(#3baaaee589)"><g clip-path="url(#a945203b6f)"><path fill="#3b2b5b" d="M 536.097656 157.945312 C 537.328125 155.109375 540.292969 154.289062 543.738281 154.765625 C 546.867188 155.203125 552.625 162.390625 552.386719 162.773438 C 552.148438 163.152344 551.714844 163.253906 551.351562 163.019531 C 551.273438 162.96875 544.644531 156.617188 541.847656 156.433594 C 540.285156 156.332031 538.542969 156.425781 537.597656 158.597656 C 537.175781 159.578125 537.140625 160.808594 537.488281 162.300781 C 536.96875 162.4375 536.4375 162.582031 535.90625 162.730469 C 535.453125 160.847656 535.519531 159.273438 536.097656 157.945312 " fill-opacity="1" fill-rule="nonzero"/></g></g></g></g><g clip-path="url(#2a1852645b)"><g clip-path="url(#7c5bbb1c28)"><g clip-path="url(#dc926f9a86)"><g clip-path="url(#630e0e0179)"><path fill="#3b2b5b" d="M 556.183594 165.851562 C 556.550781 166.070312 557.035156 166.015625 557.34375 165.695312 C 557.707031 165.320312 557.699219 164.722656 557.320312 164.359375 C 552.464844 159.667969 546.085938 151.769531 547.820312 149.714844 C 549.78125 147.390625 557.960938 151.0625 561.613281 153.203125 C 562.066406 153.46875 562.648438 153.320312 562.910156 152.871094 C 563.175781 152.417969 563.023438 151.839844 562.570312 151.574219 C 561.28125 150.816406 549.886719 144.316406 546.363281 148.492188 C 542.863281 152.644531 553.777344 163.570312 556.003906 165.714844 C 556.058594 165.769531 556.121094 165.816406 556.183594 165.851562 " fill-opacity="1" fill-rule="nonzero"/></g></g></g></g><g clip-path="url(#17ebb6202b)"><g clip-path="url(#3bbf27e3c6)"><g clip-path="url(#6325e4f01b)"><g clip-path="url(#cf9fa56002)"><path fill="#c43b72" d="M 592.386719 195.753906 C 593.347656 187.335938 612.921875 171.332031 605.5 164.53125 C 601.714844 161.066406 591.476562 166.734375 580.011719 159.910156 C 570.027344 153.964844 566.9375 144.15625 578.300781 142.132812 C 585.851562 143.625 589.324219 145.933594 598.300781 147.507812 C 602.441406 148.394531 621.441406 152.460938 622.636719 165.199219 C 623.757812 177.183594 595.597656 202.925781 595.597656 202.925781 C 595.597656 202.925781 591.804688 200.863281 592.386719 195.753906 " fill-opacity="1" fill-rule="nonzero"/></g></g></g></g><g clip-path="url(#fdfffd4871)"><g clip-path="url(#dc7f3328a2)"><g clip-path="url(#783330640a)"><g clip-path="url(#331b22de2b)"><path fill="#9b89e5" d="M 589.617188 203.304688 C 589.617188 203.304688 587.710938 204.339844 588.019531 205.265625 C 588.328125 206.191406 592.886719 210.589844 594.238281 211.25 C 595.59375 211.914062 595.546875 209.179688 595.546875 209.179688 L 589.617188 203.304688 " fill-opacity="1" fill-rule="nonzero"/></g></g></g></g><g clip-path="url(#98fcc2ddb8)"><g clip-path="url(#2e54d1dfe8)"><g clip-path="url(#4a28d3a608)"><g clip-path="url(#34328955a4)"><path fill="#4e3e75" d="M 596.734375 198.726562 C 597.183594 198.527344 597.90625 198.453125 598.332031 199.863281 C 598.757812 201.273438 594.195312 204.140625 594.144531 205.363281 C 594.097656 206.585938 595.9375 208.492188 595.484375 209.8125 C 595.136719 210.820312 591.390625 207.019531 589.65625 205.183594 C 589.160156 204.65625 589.140625 203.84375 589.617188 203.304688 C 590.144531 202.703125 591.273438 199.910156 591.734375 199.34375 C 592.601562 198.269531 593.703125 198.777344 594.460938 199.277344 C 595.21875 199.78125 596.203125 198.964844 596.734375 198.726562 " fill-opacity="1" fill-rule="nonzero"/></g></g></g></g><g clip-path="url(#c2777fe0cb)"><g clip-path="url(#448fd52fb0)"><g clip-path="url(#88e4f499b0)"><g clip-path="url(#7ef8cb12c5)"><path fill="#9b89e5" d="M 614.257812 143.273438 C 614.257812 143.273438 617.15625 144.785156 617.773438 144.257812 C 618.390625 143.734375 618.257812 142.957031 619.019531 142.765625 C 619.785156 142.578125 619.433594 140.917969 618.492188 140.652344 C 617.546875 140.386719 614.953125 140.476562 614.078125 141.238281 C 613.207031 142 614.257812 143.273438 614.257812 143.273438 " fill-opacity="1" fill-rule="nonzero"/></g></g></g></g><g clip-path="url(#7fbfb72b60)"><g clip-path="url(#a3e4e4b595)"><g clip-path="url(#db97e32a7b)"><g clip-path="url(#8f3ac6e2cb)"><path fill="#baa4ff" d="M 585.488281 152.015625 C 590.332031 156.742188 610.488281 154.34375 614.460938 147.820312 C 615.9375 145.394531 613.929688 140.265625 613.929688 140.265625 L 591.292969 144.503906 C 591.292969 144.503906 596.644531 131.847656 594.65625 125.917969 C 593.613281 122.804688 590.5625 123.992188 589.417969 124.972656 C 587.617188 126.515625 578.996094 145.679688 585.488281 152.015625 " fill-opacity="1" fill-rule="nonzero"/></g></g></g></g><g clip-path="url(#273b20b668)"><g clip-path="url(#3dd743dc3d)"><g clip-path="url(#1cbe7e6e22)"><g clip-path="url(#be821a8f84)"><path fill="#3b2b5b" d="M 586.925781 111.257812 C 587.027344 111.460938 589.746094 111.878906 592.210938 113.703125 C 594.828125 115.640625 593.832031 116.945312 594.488281 116.839844 C 600.238281 115.910156 596.160156 106.351562 593.992188 104.8125 C 591.667969 103.15625 586.105469 109.574219 586.925781 111.257812 " fill-opacity="1" fill-rule="nonzero"/></g></g></g></g><g clip-path="url(#df0509ffc6)"><g clip-path="url(#b30af6ec1c)"><g clip-path="url(#692a6e387b)"><g clip-path="url(#1753a7903d)"><path fill="#7f65c1" d="M 595.59375 104.128906 C 595.542969 104.96875 594.816406 105.605469 593.972656 105.550781 C 593.125 105.496094 592.484375 104.765625 592.539062 103.925781 C 592.589844 103.082031 593.316406 102.445312 594.160156 102.503906 C 595.003906 102.558594 595.648438 103.285156 595.59375 104.128906 " fill-opacity="1" fill-rule="nonzero"/></g></g></g></g><g clip-path="url(#b196a4ac46)"><g clip-path="url(#4aca39054a)"><g clip-path="url(#613093148e)"><g clip-path="url(#7ef050093a)"><path fill="#ffcb48" d="M 594.21875 111.449219 C 594.21875 111.449219 594.519531 108.746094 591.253906 108.171875 C 586.617188 107.359375 585.257812 112.878906 574.242188 105.714844 C 568.441406 101.945312 559.957031 113.535156 566.363281 119.152344 C 571.136719 123.335938 588.675781 126.609375 591.699219 124.726562 C 594.566406 122.9375 600.171875 112.242188 594.21875 111.449219 " fill-opacity="1" fill-rule="nonzero"/></g></g></g></g><g clip-path="url(#185bbaf70b)"><g clip-path="url(#e6cbc3ed35)"><g clip-path="url(#f1f8a2fbd2)"><g clip-path="url(#9059e14de8)"><path fill="#ffcb48" d="M 551.21875 151.082031 L 583.621094 193.523438 C 585.722656 196.28125 588.84375 198.085938 592.28125 198.539062 L 611.679688 201.097656 C 613.550781 201.34375 614.714844 199.136719 613.457031 197.730469 L 569.175781 148.238281 C 568.78125 147.796875 568.210938 147.546875 567.613281 147.554688 L 552.792969 147.820312 C 551.125 147.851562 550.207031 149.757812 551.21875 151.082031 " fill-opacity="1" fill-rule="nonzero"/></g></g></g></g><g clip-path="url(#b261f74cbb)"><g clip-path="url(#1f74c6f30a)"><g clip-path="url(#2e11d269cd)"><g clip-path="url(#d95972b320)"><path fill="#ff5e4d" d="M 563.382812 139.328125 C 567.804688 140.472656 570.78125 141.816406 574.316406 143.160156 L 568.761719 160.925781 C 567.460938 160.390625 566.132812 159.691406 564.785156 158.78125 C 555.160156 152.269531 554.292969 145.6875 563.382812 139.328125 " fill-opacity="1" fill-rule="nonzero"/></g></g></g></g><g clip-path="url(#4dc33f2aa5)"><g clip-path="url(#7374cc3072)"><g clip-path="url(#80b1199fec)"><g clip-path="url(#0a2f251109)"><g clip-path="url(#ea0e1553a3)"><g clip-path="url(#43eb376fbb)"><path fill="#3b2b5b" d="M 550.546875 126 C 556.492188 123.523438 567.363281 129.363281 567.824219 129.613281 C 568.230469 129.847656 568.367188 130.324219 568.152344 130.71875 C 567.941406 131.117188 567.445312 131.261719 567.046875 131.046875 C 566.941406 130.988281 556.414062 125.328125 551.183594 127.507812 C 550.839844 127.648438 550.804688 127.804688 550.789062 127.878906 C 550.457031 129.324219 554.027344 133.378906 557.179688 136.953125 C 562.316406 142.78125 567.628906 148.808594 566.316406 152.929688 C 564.171875 159.671875 561.386719 162.832031 557.902344 165.203125 C 562.765625 170.679688 592.363281 204.082031 595.746094 210.203125 C 597.421875 213.234375 596.765625 216.902344 594.035156 219.78125 C 591.527344 222.421875 587.050781 224.40625 583.15625 222.523438 C 583.058594 222.476562 582.957031 222.421875 582.847656 222.359375 C 575.84375 218.25 544.691406 179.449219 538.699219 169.132812 C 537.269531 166.664062 536.34375 164.550781 535.90625 162.730469 C 536.4375 162.582031 536.96875 162.4375 537.488281 162.300781 C 537.875 163.964844 538.746094 165.960938 540.113281 168.316406 C 546.628906 179.539062 578.292969 218.371094 583.863281 221.054688 C 586.878906 222.511719 590.664062 220.949219 592.84375 218.65625 C 595.105469 216.273438 595.652344 213.410156 594.316406 210.988281 C 590.792969 204.617188 556.398438 165.964844 556.050781 165.578125 C 555.890625 165.398438 555.816406 165.15625 555.851562 164.921875 C 555.882812 164.683594 556.019531 164.472656 556.222656 164.347656 C 559.886719 162.035156 562.59375 159.234375 564.757812 152.429688 C 565.789062 149.191406 560.335938 143 555.953125 138.027344 C 551.441406 132.910156 548.699219 129.660156 549.195312 127.507812 C 549.304688 127.03125 549.625 126.382812 550.546875 126 " fill-opacity="1" fill-rule="nonzero"/></g></g></g></g></g></g><g clip-path="url(#4572c9fb68)"><g clip-path="url(#c4131f00e6)"><g clip-path="url(#a37a86ecd1)"><g clip-path="url(#0f0c861c77)"><path fill="#ff5e4d" d="M 583.042969 145.855469 C 587.125 146.980469 605.859375 152.140625 606.3125 164.921875 C 606.734375 176.945312 577.117188 201.007812 577.117188 201.007812 C 577.117188 201.007812 573.449219 198.730469 574.328125 193.664062 C 575.777344 185.316406 596.253906 170.480469 589.238281 163.261719 C 586.097656 160.03125 578.136719 164.777344 568.761719 160.925781 L 574.316406 143.160156 C 576.746094 144.082031 579.433594 145.003906 583.042969 145.855469 " fill-opacity="1" fill-rule="nonzero"/></g></g></g></g><g clip-path="url(#69c770746a)"><g clip-path="url(#00db305fc3)"><g clip-path="url(#df8cb22c14)"><g clip-path="url(#8745338bdc)"><path fill="#baa4ff" d="M 594.117188 123.269531 C 593.199219 120.789062 590.492188 117.609375 583.234375 114.871094 C 579.503906 113.464844 573.921875 111.046875 568.65625 116.484375 C 560.6875 124.714844 559.800781 139.726562 560.492188 142.472656 C 566.554688 148.691406 583.492188 144.824219 584.40625 143.75 C 581.75 132.574219 596.054688 128.523438 594.117188 123.269531 " fill-opacity="1" fill-rule="nonzero"/></g></g></g></g><g clip-path="url(#19e6591614)"><g clip-path="url(#9390b31a47)"><g clip-path="url(#d90c623462)"><g clip-path="url(#09a5a2629d)"><path fill="#ff97a6" d="M 589.425781 115.074219 C 589.425781 115.074219 586.648438 118.871094 586.597656 119.449219 C 586.546875 120.023438 586.984375 121.066406 588.019531 120.316406 C 589.058594 119.5625 590.644531 115.765625 590.644531 115.765625 L 589.425781 115.074219 " fill-opacity="1" fill-rule="nonzero"/></g></g></g></g><g clip-path="url(#720c974605)"><g clip-path="url(#89bc36f763)"><g clip-path="url(#e974ce0b56)"><g clip-path="url(#e5a2d13ba7)"><path fill="#c95d77" d="M 587.46875 117.882812 C 587.734375 118.496094 588.265625 119.054688 589.046875 118.996094 C 589.484375 118.265625 589.910156 117.402344 590.210938 116.746094 L 588.800781 115.949219 C 588.40625 116.5 587.898438 117.226562 587.46875 117.882812 " fill-opacity="1" fill-rule="nonzero"/></g></g></g></g><g clip-path="url(#579280f907)"><g clip-path="url(#215f1cdebc)"><g clip-path="url(#8e8148adeb)"><g clip-path="url(#be3a8b859e)"><path fill="#ff97a6" d="M 592.675781 117.164062 C 593.3125 116.777344 594.554688 114.339844 594.554688 114.339844 C 593.171875 113.484375 592.609375 111.78125 592.542969 111.566406 C 591.832031 111.300781 591.050781 110.832031 590.269531 110.851562 C 589.417969 110.875 588.863281 111.734375 588.433594 112.367188 C 588.007812 113 587.472656 114.28125 587.527344 115.066406 C 587.574219 115.785156 588.339844 116.878906 588.9375 117.234375 C 590.734375 118.3125 591.527344 118.171875 592.675781 117.164062 " fill-opacity="1" fill-rule="nonzero"/></g></g></g></g><g clip-path="url(#0ca1826ea5)"><g clip-path="url(#16597c60ac)"><g clip-path="url(#e3dd8c710c)"><g clip-path="url(#a00df01ce3)"><path fill="#9b89e5" d="M 571.132812 201.175781 C 571.132812 201.175781 569.15625 202.070312 569.394531 203.011719 C 569.632812 203.960938 573.859375 208.679688 575.160156 209.4375 C 576.460938 210.199219 576.617188 207.46875 576.617188 207.46875 L 571.132812 201.175781 " fill-opacity="1" fill-rule="nonzero"/></g></g></g></g><g clip-path="url(#7811a1af9d)"><g clip-path="url(#f4bc628cbe)"><g clip-path="url(#264b93c4de)"><g clip-path="url(#4bd2df2f9a)"><path fill="#4e3e75" d="M 578.574219 197.132812 C 579.03125 196.96875 579.757812 196.945312 580.082031 198.382812 C 580.402344 199.820312 575.640625 202.34375 575.5 203.5625 C 575.363281 204.777344 577.058594 206.8125 576.507812 208.09375 C 576.085938 209.074219 572.628906 205.007812 571.035156 203.050781 C 570.578125 202.492188 570.621094 201.679688 571.132812 201.175781 C 571.707031 200.613281 573.035156 197.914062 573.535156 197.382812 C 574.484375 196.375 575.542969 196.960938 576.261719 197.519531 C 576.984375 198.074219 578.023438 197.332031 578.574219 197.132812 " fill-opacity="1" fill-rule="nonzero"/></g></g></g></g><g clip-path="url(#72aba6c32b)"><g clip-path="url(#81716b9cb0)"><g clip-path="url(#82467ba64a)"><g clip-path="url(#7b08e66955)"><path fill="#ff9a2e" d="M 574.242188 105.714844 C 585.257812 112.878906 586.617188 107.359375 591.253906 108.171875 C 592.496094 108.390625 593.21875 108.917969 593.644531 109.484375 C 591.476562 109.566406 588.195312 109.917969 586.925781 111.257812 C 584.960938 113.332031 575.945312 108.078125 572.164062 111.113281 C 569.921875 112.910156 569.273438 117.347656 571.152344 121.761719 C 569.125 120.96875 567.425781 120.082031 566.363281 119.152344 C 559.957031 113.535156 568.441406 101.945312 574.242188 105.714844 " fill-opacity="1" fill-rule="nonzero"/></g></g></g></g><g clip-path="url(#a75b188698)"><g clip-path="url(#e03d95b35d)"><g clip-path="url(#ec1e294a8e)"><g clip-path="url(#509c20eab8)"><path fill="#3b2b5b" d="M 592.113281 143.167969 Z M 590.738281 205.246094 C 590.824219 205.292969 590.921875 205.320312 591.027344 205.320312 C 591.328125 205.3125 591.566406 205.0625 591.558594 204.761719 C 590.890625 182.097656 590.453125 145.464844 592.09375 143.195312 C 593.328125 142.6875 597.066406 144.988281 600.070312 146.839844 C 602.941406 148.609375 605.65625 150.277344 607.582031 150.6875 C 610.136719 151.234375 612.09375 148.78125 613.820312 146.617188 C 615.214844 144.871094 616.53125 143.21875 617.808594 143.40625 C 619.753906 145.640625 616.0625 180.953125 613.261719 202.796875 C 613.226562 203.09375 613.4375 203.367188 613.734375 203.40625 C 614.035156 203.445312 614.308594 203.234375 614.34375 202.9375 C 614.363281 202.789062 616.261719 187.925781 617.71875 173.175781 C 620.707031 142.847656 618.992188 142.523438 618.074219 142.347656 C 616.128906 141.976562 614.59375 143.898438 612.96875 145.9375 C 611.363281 147.949219 609.703125 150.027344 607.804688 149.625 C 606.0625 149.253906 603.308594 147.558594 600.640625 145.914062 C 596.695312 143.484375 593.285156 141.382812 591.558594 142.242188 C 590.890625 142.574219 589.644531 143.1875 589.898438 174.234375 C 590.019531 189.414062 590.464844 204.636719 590.46875 204.789062 C 590.472656 204.984375 590.582031 205.152344 590.738281 205.246094 " fill-opacity="1" fill-rule="nonzero"/></g></g></g></g><g clip-path="url(#8917889ff9)"><g clip-path="url(#3fd1a7eb08)"><g clip-path="url(#6084159542)"><g clip-path="url(#f9daa077f9)"><path fill="#9b89e5" d="M 587.664062 142.269531 C 587.664062 142.269531 589.648438 144.867188 590.429688 144.652344 C 591.214844 144.441406 591.429688 143.683594 592.203125 143.839844 C 592.972656 143.992188 593.363281 142.34375 592.625 141.703125 C 591.886719 141.0625 589.492188 140.039062 588.375 140.355469 C 587.257812 140.671875 587.664062 142.269531 587.664062 142.269531 " fill-opacity="1" fill-rule="nonzero"/></g></g></g></g><g clip-path="url(#95886ebccf)"><g clip-path="url(#086db23e5f)"><g clip-path="url(#31afbf646c)"><g clip-path="url(#78f2571684)"><path fill="#7f65c1" d="M 558.320312 137.753906 C 560.6875 144.078125 579.980469 150.488281 586.367188 146.292969 C 588.742188 144.730469 589.113281 139.246094 589.113281 139.246094 L 566.789062 133.4375 C 566.789062 133.4375 577.050781 124.292969 577.78125 118.089844 C 578.167969 114.835938 574.898438 114.609375 573.4375 115.007812 C 571.144531 115.632812 555.144531 129.265625 558.320312 137.753906 " fill-opacity="1" fill-rule="nonzero"/></g></g></g></g><g clip-path="url(#eb36778506)"><g clip-path="url(#74b92ba11f)"><g clip-path="url(#10b7f6347d)"><g clip-path="url(#3d80cc0ed4)"><g clip-path="url(#97b265e9e8)"><g clip-path="url(#43a98a9b69)"><path fill="#ffad96" d="M 561.695312 96.703125 L 562.175781 96.199219 L 563.148438 97.253906 C 563.285156 97.03125 563.480469 96.804688 563.714844 96.589844 L 562.707031 95.523438 L 563.222656 95.082031 L 564.226562 96.167969 C 564.480469 95.984375 564.75 95.8125 565.019531 95.660156 L 563.988281 94.570312 L 564.449219 94.097656 L 565.613281 95.355469 C 565.730469 95.300781 565.84375 95.25 565.953125 95.203125 L 564.707031 93.890625 L 565.105469 93.5625 L 566.691406 95.273438 C 568.683594 96.738281 576.6875 106.296875 587.808594 115.832031 C 589.707031 117.457031 591.800781 118.246094 591.800781 118.246094 C 594.433594 118.699219 593.132812 120.972656 592.792969 121.886719 C 592.453125 122.800781 590.5 122.792969 587.957031 121.765625 C 579.550781 118.371094 565.203125 102.011719 563.199219 98.613281 L 563.195312 98.613281 L 561.695312 96.703125 " fill-opacity="1" fill-rule="nonzero"/></g></g></g></g></g></g></svg>