<svg xmlns="http://www.w3.org/2000/svg" xmlns:xlink="http://www.w3.org/1999/xlink" width="1366" zoomAndPan="magnify" viewBox="0 0 1024.5 863.999991" height="1152" preserveAspectRatio="xMidYMid meet" version="1.0"><defs><clipPath id="3b7816084b"><path d="M 0 0.210938 L 1024 0.210938 L 1024 863.789062 L 0 863.789062 Z M 0 0.210938 " clip-rule="nonzero"/></clipPath><clipPath id="0bc9e76e11"><path d="M 44.769531 21.910156 L 170 21.910156 L 170 146.410156 L 44.769531 146.410156 Z M 44.769531 21.910156 " clip-rule="nonzero"/></clipPath><clipPath id="42b55ba2af"><path d="M 197.527344 21.910156 L 321 21.910156 L 321 145 L 197.527344 145 Z M 197.527344 21.910156 " clip-rule="nonzero"/></clipPath><clipPath id="e930b49158"><path d="M 299 123 L 341.527344 123 L 341.527344 165.910156 L 299 165.910156 Z M 299 123 " clip-rule="nonzero"/></clipPath><clipPath id="b7d72d1cbe"><path d="M 439 112 L 474 112 L 474 146.890625 L 439 146.890625 Z M 439 112 " clip-rule="nonzero"/></clipPath></defs><g clip-path="url(#3b7816084b)"><path fill="#ffffff" d="M 0 0.210938 L 1024.5 0.210938 L 1024.5 864.210938 L 0 864.210938 Z M 0 0.210938 " fill-opacity="1" fill-rule="nonzero"/><path fill="#f2e7de" d="M 0 0.210938 L 1024.5 0.210938 L 1024.5 864.210938 L 0 864.210938 Z M 0 0.210938 " fill-opacity="1" fill-rule="nonzero"/></g><g clip-path="url(#0bc9e76e11)"><path fill="#000000" d="M 166.058594 126.183594 L 144.433594 104.964844 C 149.902344 96.386719 152.847656 86.429688 152.847656 76.015625 C 152.847656 61.585938 147.226562 48.019531 137.015625 37.816406 C 126.808594 27.613281 113.230469 21.992188 98.792969 21.992188 C 84.351562 21.992188 70.777344 27.613281 60.566406 37.816406 C 50.351562 48.019531 44.730469 61.582031 44.730469 76.011719 C 44.730469 90.441406 50.351562 104.007812 60.5625 114.210938 C 70.773438 124.414062 84.347656 130.035156 98.789062 130.035156 C 109.214844 130.035156 119.1875 127.089844 127.773438 121.617188 L 149.492188 142.925781 C 151.78125 145.191406 154.78125 146.320312 157.777344 146.320312 C 160.796875 146.320312 163.816406 145.175781 166.109375 142.882812 C 166.125 142.867188 166.140625 142.851562 166.152344 142.839844 C 170.722656 138.222656 170.683594 130.753906 166.058594 126.183594 Z M 63.503906 111.273438 C 54.082031 101.851562 48.890625 89.332031 48.890625 76.011719 C 48.890625 62.695312 54.082031 50.171875 63.503906 40.753906 C 72.929688 31.332031 85.460938 26.144531 98.792969 26.144531 C 112.121094 26.144531 124.652344 31.332031 134.074219 40.753906 C 143.5 50.171875 148.691406 62.695312 148.691406 76.011719 C 148.691406 89.332031 143.5 101.851562 134.074219 111.273438 C 124.652344 120.691406 112.121094 125.878906 98.789062 125.878906 C 85.460938 125.878906 72.929688 120.691406 63.503906 111.273438 Z M 163.21875 139.894531 C 163.203125 139.914062 163.183594 139.929688 163.167969 139.945312 C 160.214844 142.902344 155.390625 142.914062 152.410156 139.964844 L 131.253906 119.210938 C 133.269531 117.691406 135.199219 116.027344 137.015625 114.210938 C 138.839844 112.390625 140.511719 110.457031 142.035156 108.433594 L 163.144531 129.144531 C 164.589844 130.574219 165.394531 132.484375 165.40625 134.515625 C 165.414062 136.511719 164.664062 138.390625 163.21875 139.894531 Z M 163.21875 139.894531 " fill-opacity="1" fill-rule="nonzero"/></g><path fill="#000000" d="M 62.761719 55.679688 C 61.730469 55.167969 60.484375 55.589844 59.972656 56.617188 C 54.621094 67.40625 54.003906 80.054688 58.28125 91.328125 C 58.597656 92.160156 59.386719 92.671875 60.226562 92.671875 C 60.472656 92.671875 60.71875 92.628906 60.960938 92.535156 C 62.035156 92.128906 62.578125 90.929688 62.167969 89.855469 C 58.300781 79.660156 58.855469 68.21875 63.699219 58.464844 C 64.210938 57.4375 63.789062 56.191406 62.761719 55.679688 Z M 62.761719 55.679688 " fill-opacity="1" fill-rule="nonzero"/><g clip-path="url(#42b55ba2af)"><path fill="#000000" d="M 320.640625 83.433594 C 320.640625 67.011719 314.242188 51.570312 302.628906 39.953125 C 291.015625 28.335938 275.574219 21.941406 259.148438 21.941406 C 242.722656 21.941406 227.277344 28.335938 215.660156 39.953125 C 204.046875 51.570312 197.652344 67.011719 197.652344 83.433594 C 197.652344 99.859375 204.046875 115.300781 215.660156 126.917969 C 227.277344 138.535156 242.71875 144.929688 259.144531 144.929688 C 275.570312 144.929688 291.011719 138.535156 302.628906 126.917969 C 314.242188 115.300781 320.640625 99.859375 320.640625 83.433594 Z M 215.902344 61.796875 C 209.9375 73.824219 209.25 87.933594 214.015625 100.503906 C 214.519531 101.828125 213.851562 103.308594 212.527344 103.808594 C 212.230469 103.921875 211.925781 103.976562 211.621094 103.976562 C 210.589844 103.976562 209.613281 103.347656 209.226562 102.324219 C 203.953125 88.421875 204.710938 72.820312 211.3125 59.519531 C 211.941406 58.25 213.476562 57.730469 214.746094 58.363281 C 216.015625 58.992188 216.53125 60.53125 215.902344 61.796875 Z M 215.902344 61.796875 " fill-opacity="1" fill-rule="nonzero"/></g><g clip-path="url(#e930b49158)"><path fill="#000000" d="M 338.445312 148.953125 L 312.4375 123.414062 C 310.558594 125.910156 308.5 128.292969 306.25 130.539062 C 304.011719 132.78125 301.636719 134.832031 299.152344 136.703125 L 325.222656 162.300781 C 328.894531 165.933594 334.839844 165.921875 338.480469 162.273438 C 338.5 162.253906 338.523438 162.234375 338.542969 162.214844 C 340.320312 160.355469 341.246094 158.039062 341.234375 155.578125 C 341.222656 153.074219 340.230469 150.71875 338.445312 148.953125 Z M 338.445312 148.953125 " fill-opacity="1" fill-rule="nonzero"/></g><path fill="#000000" d="M 389.574219 108.140625 C 376.957031 95.523438 376.957031 74.996094 389.574219 62.382812 C 402.1875 49.765625 422.714844 49.765625 435.332031 62.382812 C 447.945312 74.996094 447.945312 95.523438 435.332031 108.140625 C 422.714844 120.753906 402.1875 120.753906 389.574219 108.140625 Z M 441.375 56.339844 C 425.425781 40.390625 399.476562 40.390625 383.53125 56.339844 C 367.582031 72.285156 367.582031 98.234375 383.53125 114.183594 C 399.476562 130.132812 425.425781 130.132812 441.375 114.183594 C 457.324219 98.234375 457.324219 72.285156 441.375 56.339844 " fill-opacity="1" fill-rule="nonzero"/><g clip-path="url(#b7d72d1cbe)"><path fill="#000000" d="M 448.722656 112.3125 C 447.464844 114.054688 446.050781 115.722656 444.484375 117.292969 C 442.914062 118.859375 441.246094 120.273438 439.503906 121.53125 L 462.304688 144.332031 C 464.851562 146.878906 468.980469 146.878906 471.523438 144.332031 C 474.070312 141.789062 474.070312 137.660156 471.523438 135.113281 L 448.722656 112.3125 " fill-opacity="1" fill-rule="nonzero"/></g><path fill="#000000" d="M 426.425781 69.140625 C 425.902344 69.140625 425.375 68.980469 424.917969 68.644531 C 421.289062 65.953125 416.980469 64.535156 412.453125 64.535156 C 407.925781 64.535156 403.613281 65.953125 399.984375 68.644531 C 398.863281 69.476562 397.273438 69.242188 396.441406 68.117188 C 395.609375 66.992188 395.84375 65.40625 396.96875 64.574219 C 401.476562 61.230469 406.828125 59.464844 412.453125 59.464844 C 418.074219 59.464844 423.429688 61.230469 427.9375 64.574219 C 429.0625 65.40625 429.296875 66.992188 428.464844 68.117188 C 427.964844 68.789062 427.203125 69.140625 426.425781 69.140625 " fill-opacity="1" fill-rule="nonzero"/></svg>