<?xml version="1.0" standalone="no"?>
<!DOCTYPE svg PUBLIC "-//W3C//DTD SVG 20010904//EN"
 "http://www.w3.org/TR/2001/REC-SVG-20010904/DTD/svg10.dtd">
<svg version="1.0" xmlns="http://www.w3.org/2000/svg"
 width="700.000000pt" height="700.000000pt" viewBox="0 0 700.000000 700.000000"
 preserveAspectRatio="xMidYMid meet">
<metadata>
Created by potrace 1.14, written by Peter Selinger 2001-2017
</metadata>
<g transform="translate(0.000000,700.000000) scale(0.100000,-0.100000)"
fill="#000000" stroke="none">
<path d="M3229 6466 c-2 -2 -33 -6 -69 -10 -36 -4 -76 -8 -90 -10 -14 -2 -47
-7 -75 -11 -27 -3 -58 -9 -67 -11 -10 -3 -30 -7 -44 -10 -103 -19 -339 -87
-409 -119 -16 -7 -53 -23 -82 -34 -191 -75 -448 -229 -643 -385 -96 -77 -308
-289 -386 -386 -238 -295 -418 -649 -509 -1000 -21 -84 -55 -258 -61 -320 -4
-30 -10 -75 -14 -100 -9 -45 -6 -503 3 -550 4 -24 16 -99 22 -146 12 -87 63
-289 107 -419 100 -298 278 -611 486 -855 136 -159 356 -360 497 -455 33 -22
62 -42 65 -45 14 -15 188 -114 276 -158 260 -130 569 -225 833 -257 30 -4 63
-9 75 -11 12 -2 93 -7 181 -10 87 -2 161 -6 163 -8 2 -2 2 -100 1 -218 -3
-320 -2 -328 12 -356 75 -148 246 -98 567 166 203 166 553 503 979 942 50 52
152 154 225 225 326 317 545 673 687 1115 35 107 69 253 86 365 23 151 29 244
29 425 0 214 -9 308 -48 525 -49 264 -188 616 -341 860 -50 80 -170 252 -185
265 -3 3 -30 34 -60 70 -171 204 -420 414 -660 557 -214 127 -510 249 -724
298 -63 14 -238 46 -281 51 -27 3 -61 8 -75 11 -28 6 -466 14 -471 9z"/>
</g>
</svg>
